<svg width="43" height="51" viewBox="0 0 43 51" fill="none" xmlns="http://www.w3.org/2000/svg">
<g id="Logo" clip-path="url(#clip0_493_1443)">
<path id="Vector" d="M42.8227 14.0473C42.6737 13.2672 42.1908 12.6353 41.4473 12.1523C40.7038 11.6694 39.9236 11.5204 39.106 11.7061C38.3104 11.8781 37.5615 12.2204 36.9107 12.7094C36.2413 13.1923 35.7584 13.6385 35.4611 14.0848C34.3838 15.6825 33.343 17.352 32.3764 19.0254C31.4106 20.7347 30.444 22.444 29.5149 24.1907C28.957 24.4139 28.0661 24.7852 26.8398 25.2315C25.9847 25.5287 24.944 25.9 23.755 26.3096L23.6825 25.2705L23.4235 20.9578L22.123 0L19.334 5.6857L20.338 21.7395L20.6719 26.7941L21.0441 33.0002V33.0368C21.1293 33.0075 21.216 32.9828 21.3039 32.9627C23.5867 32.2836 25.8214 31.4519 27.9928 30.4733C30.1444 29.5441 31.5979 28.7632 33.571 27.6484C37.3617 25.4928 40.0368 22.7078 41.5238 19.2876C41.8032 18.7112 42.0392 18.1148 42.2298 17.5034C42.4649 16.8745 42.6514 16.2284 42.7876 15.5709C42.9286 15.0743 42.9406 14.5499 42.8227 14.0473ZM38.2885 19.6254C37.2572 20.4262 36.1495 21.1234 34.9814 21.7069C33.755 22.3013 32.4912 22.9333 31.1907 23.5277C31.711 22.636 32.2681 21.781 32.8259 20.8893C33.391 20.0257 34.0654 19.2387 34.8324 18.5481C35.0941 18.287 35.4331 18.1173 35.799 18.0644C36.3389 17.9213 36.9097 17.9474 37.4342 18.1393C37.992 18.3249 38.2885 18.6596 38.4 19.1425C38.4325 19.2242 38.4392 19.3139 38.4192 19.3995C38.3993 19.4851 38.3537 19.5625 38.2885 19.6215V19.6254Z" fill="#A31D1D"/>
<path id="Vector_2" d="M32.6022 0L29.7031 5.62275L30.5215 20.8853L33.4198 16.2052L32.6022 0Z" fill="#A31D1D"/>
<path id="Vector_3" d="M16.6599 30.0835L16.6224 30.1209C15.9539 30.7154 15.3219 31.2724 14.6159 31.8677L12.6094 33.6511L14.9873 36.8474C15.6933 36.2529 16.3627 35.6576 17.0312 35.0632L19.0378 33.2798L16.6599 30.0835Z" fill="#A31D1D"/>
<path id="Vector_4" d="M34.3759 37.7329C34.3175 37.9489 34.2429 38.1601 34.1527 38.3648C33.9671 38.8111 33.7065 39.294 33.0371 40.0383C32.6805 40.4604 32.2955 40.8576 31.8848 41.2272C30.5477 42.5644 29.4328 43.4935 29.0216 43.8282C26.9777 45.3893 24.5592 47.1751 21.6266 48.5856C20.0374 49.3289 18.3837 49.9258 16.686 50.369C15.1257 50.7778 13.379 51.0009 11.4466 51.0009C9.12019 51.0158 6.82024 50.5073 4.71696 49.5131C3.22275 48.7682 2.00062 47.5722 1.22346 46.0945C0.405868 44.6084 -0.00292969 42.7126 -0.00292969 40.4463C-0.00292969 38.439 0.369211 36.2834 1.07524 34.0538C2.15262 30.4861 3.75115 27.5879 5.94335 25.2467L9.10216 22.162V22.1253L10.2178 21.0472L10.4409 20.824C10.3249 20.332 10.0957 19.8739 9.77154 19.4861C9.47431 18.9283 9.28863 18.223 9.28863 17.368C9.28314 16.2054 9.47166 15.05 9.84645 13.9494C10.2552 12.872 10.7381 11.9795 11.2952 11.3109C11.8904 10.5675 12.559 10.1953 13.265 10.1953H13.3025C13.8771 10.2257 14.4485 10.3 15.0118 10.4176C15.5321 10.5667 16.0525 10.6782 16.6055 10.8272L15.1568 15.2491C14.5852 15.0613 14.0017 14.9122 13.4101 14.8028C12.8156 14.6921 12.1837 14.6172 11.5884 14.5431C11.69 15.3388 11.9694 16.1014 12.406 16.7743C12.8196 17.3676 13.2951 17.9152 13.8244 18.4079C14.9026 18.3705 15.8318 18.1481 16.5745 17.776C16.9841 17.5903 17.3554 17.4046 17.7642 17.2182C18.1355 17.0692 18.5443 16.8835 18.9531 16.7345C18.958 16.7347 18.9629 16.7339 18.9675 16.7321C18.9721 16.7304 18.9763 16.7277 18.9798 16.7243C18.9833 16.7208 18.9861 16.7167 18.988 16.7122C18.9898 16.7076 18.9907 16.7027 18.9906 16.6978C19.0057 16.6957 19.0212 16.6971 19.0357 16.702C19.0502 16.7068 19.0633 16.715 19.0742 16.7258C19.085 16.7366 19.0931 16.7498 19.098 16.7643C19.1028 16.7788 19.1043 16.7942 19.1021 16.8094C19.0954 16.9522 19.0573 17.0917 18.9906 17.2182C18.8413 17.6639 18.6554 18.1471 18.4328 18.6677C18.173 19.188 17.9499 19.6335 17.7642 20.0423C17.6526 20.2654 17.5411 20.4511 17.5036 20.6001C17.454 20.681 17.4167 20.7688 17.3929 20.8607C16.6494 21.232 14.8652 22.0496 14.234 22.3469C15.0018 22.3904 15.7718 22.3782 16.5378 22.3102C17.9124 22.1612 18.9531 22.0496 19.6592 21.9014C20.9269 21.6634 22.1801 21.3532 23.4124 20.9722C24.0733 20.801 24.7195 20.5774 25.3449 20.3037C25.3823 19.3745 25.0851 17.9991 24.4906 16.2157L27.906 11.1619C27.9435 11.0878 28.055 11.1619 28.1291 11.4592C28.203 11.7195 28.3146 12.2026 28.4638 12.9087C28.7977 14.2841 28.9093 15.2873 28.8352 15.9193C28.5754 18.1505 27.8694 20.1921 26.7545 21.9755C25.8995 23.3509 24.8962 24.4283 23.6698 25.2825C23.5796 25.3262 23.4926 25.3759 23.4093 25.4316C22.2578 25.9894 21.2912 26.5089 20.0624 26.8436C19.8767 26.9177 19.0591 27.1409 17.9817 27.2899C17.6003 27.3504 17.2155 27.3876 16.8295 27.4014C16.3232 27.4521 15.8139 27.4644 15.3058 27.4381C14.8833 27.4453 14.4608 27.4206 14.042 27.364C13.3734 27.2524 12.9646 27.1042 12.8164 27.0293C12.5184 26.9177 12.2586 26.8436 11.998 26.658C11.6267 26.3974 11.4402 26.1376 11.4035 26.0635C11.292 25.9519 11.0696 25.6172 10.9581 25.1343C10.9036 24.9158 10.8784 24.6909 10.8832 24.4658C8.50531 27.1409 7.46459 28.3306 7.27891 28.5529L7.16735 28.6645C7.05579 28.8138 6.86985 29.0369 6.60954 29.3339C5.83259 30.2638 5.27477 30.9698 4.64604 31.8241C4.08823 32.5676 3.64278 33.3477 3.23398 34.0912C2.84928 34.8314 2.52599 35.6019 2.26737 36.395C2.0817 36.9528 1.97013 37.4731 1.97013 37.956C1.95522 38.7573 2.23254 39.5366 2.75027 40.1483C4.23724 41.7834 6.09715 43.0098 8.28776 43.7908C10.4808 44.6084 13.0818 45.0172 16.0174 45.0172C17.5411 45.0172 19.6966 45.0538 22.4092 44.4227C24.7702 43.8647 27.0365 42.9631 29.1356 41.7468C31.4027 40.4463 33.112 38.9593 34.3759 37.7329Z" fill="#A31D1D"/>
</g>
<defs>
<clipPath id="clip0_493_1443">
<rect width="42.9014" height="51" fill="white"/>
</clipPath>
</defs>
</svg>
