<svg width="24" height="24" viewBox="0 0 24 24" fill="none" xmlns="http://www.w3.org/2000/svg">
<g id="palette-solid 1">
<path id="Vector" d="M21 12C21 12.0316 21 12.0633 21 12.0949C20.9859 13.3781 19.8188 14.25 18.5355 14.25H15.0938C14.1621 14.25 13.4062 15.0059 13.4062 15.9375C13.4062 16.057 13.4203 16.173 13.4414 16.2855C13.5152 16.6441 13.6699 16.9887 13.8211 17.3367C14.0355 17.8219 14.2465 18.3035 14.2465 18.8133C14.2465 19.9312 13.4871 20.9473 12.3691 20.993C12.2461 20.9965 12.123 21 11.9965 21C7.02891 21 3 16.9711 3 12C3 7.02891 7.02891 3 12 3C16.9711 3 21 7.02891 21 12ZM7.5 13.125C7.5 12.8266 7.38147 12.5405 7.1705 12.3295C6.95952 12.1185 6.67337 12 6.375 12C6.07663 12 5.79048 12.1185 5.5795 12.3295C5.36853 12.5405 5.25 12.8266 5.25 13.125C5.25 13.4234 5.36853 13.7095 5.5795 13.9205C5.79048 14.1315 6.07663 14.25 6.375 14.25C6.67337 14.25 6.95952 14.1315 7.1705 13.9205C7.38147 13.7095 7.5 13.4234 7.5 13.125ZM7.5 9.75C7.79837 9.75 8.08452 9.63147 8.2955 9.4205C8.50647 9.20952 8.625 8.92337 8.625 8.625C8.625 8.32663 8.50647 8.04048 8.2955 7.8295C8.08452 7.61853 7.79837 7.5 7.5 7.5C7.20163 7.5 6.91548 7.61853 6.7045 7.8295C6.49353 8.04048 6.375 8.32663 6.375 8.625C6.375 8.92337 6.49353 9.20952 6.7045 9.4205C6.91548 9.63147 7.20163 9.75 7.5 9.75ZM13.125 6.375C13.125 6.07663 13.0065 5.79048 12.7955 5.5795C12.5845 5.36853 12.2984 5.25 12 5.25C11.7016 5.25 11.4155 5.36853 11.2045 5.5795C10.9935 5.79048 10.875 6.07663 10.875 6.375C10.875 6.67337 10.9935 6.95952 11.2045 7.1705C11.4155 7.38147 11.7016 7.5 12 7.5C12.2984 7.5 12.5845 7.38147 12.7955 7.1705C13.0065 6.95952 13.125 6.67337 13.125 6.375ZM16.5 9.75C16.7984 9.75 17.0845 9.63147 17.2955 9.4205C17.5065 9.20952 17.625 8.92337 17.625 8.625C17.625 8.32663 17.5065 8.04048 17.2955 7.8295C17.0845 7.61853 16.7984 7.5 16.5 7.5C16.2016 7.5 15.9155 7.61853 15.7045 7.8295C15.4935 8.04048 15.375 8.32663 15.375 8.625C15.375 8.92337 15.4935 9.20952 15.7045 9.4205C15.9155 9.63147 16.2016 9.75 16.5 9.75Z" fill="#A31D1D"/>
</g>
</svg>
