<svg width="18" height="18" viewBox="0 0 18 18" fill="none" xmlns="http://www.w3.org/2000/svg">
<g id="Log out">
<path id="Vector" d="M4.71445 3.34805L0.397264 7.66523C0.14414 7.91836 0 8.26641 0 8.625C0 8.98359 0.14414 9.33164 0.397264 9.58477L4.71445 13.902C4.93945 14.127 5.2418 14.25 5.5582 14.25C6.21562 14.25 6.75 13.7156 6.75 13.0582V10.875H11.25C11.8723 10.875 12.375 10.3723 12.375 9.75V7.5C12.375 6.87773 11.8723 6.375 11.25 6.375H6.75V4.1918C6.75 3.53437 6.21562 3 5.5582 3C5.2418 3 4.93945 3.12656 4.71445 3.34805ZM12.375 3H14.625C15.2473 3 15.75 3.50273 15.75 4.125V13.125C15.75 13.7473 15.2473 14.25 14.625 14.25H12.375C11.7527 14.25 11.25 14.7527 11.25 15.375C11.25 15.9973 11.7527 16.5 12.375 16.5H14.625C16.4883 16.5 18 14.9883 18 13.125V4.125C18 2.26172 16.4883 0.75 14.625 0.75H12.375C11.7527 0.75 11.25 1.25273 11.25 1.875C11.25 2.49727 11.7527 3 12.375 3Z" fill="#FFEFD1"/>
</g>
</svg>
