<svg width="24" height="24" viewBox="0 0 24 24" fill="none" xmlns="http://www.w3.org/2000/svg">
<g id="bag-shopping-solid 1">
<path id="Vector" d="M9.71429 6.85742C9.71429 5.59671 10.7393 4.57171 12 4.57171C13.2607 4.57171 14.2857 5.59671 14.2857 6.85742V8.57171H9.71429V6.85742ZM8 8.57171H5.71429C4.76786 8.57171 4 9.33956 4 10.286V17.7146C4 19.6074 5.53571 21.1431 7.42857 21.1431H16.5714C18.4643 21.1431 20 19.6074 20 17.7146V10.286C20 9.33956 19.2321 8.57171 18.2857 8.57171H16V6.85742C16 4.64671 14.2107 2.85742 12 2.85742C9.78929 2.85742 8 4.64671 8 6.85742V8.57171ZM8.85714 10.286C9.08447 10.286 9.30249 10.3763 9.46323 10.537C9.62398 10.6978 9.71429 10.9158 9.71429 11.1431C9.71429 11.3705 9.62398 11.5885 9.46323 11.7492C9.30249 11.91 9.08447 12.0003 8.85714 12.0003C8.62981 12.0003 8.4118 11.91 8.25105 11.7492C8.09031 11.5885 8 11.3705 8 11.1431C8 10.9158 8.09031 10.6978 8.25105 10.537C8.4118 10.3763 8.62981 10.286 8.85714 10.286ZM14.2857 11.1431C14.2857 10.9158 14.376 10.6978 14.5368 10.537C14.6975 10.3763 14.9155 10.286 15.1429 10.286C15.3702 10.286 15.5882 10.3763 15.7489 10.537C15.9097 10.6978 16 10.9158 16 11.1431C16 11.3705 15.9097 11.5885 15.7489 11.7492C15.5882 11.91 15.3702 12.0003 15.1429 12.0003C14.9155 12.0003 14.6975 11.91 14.5368 11.7492C14.376 11.5885 14.2857 11.3705 14.2857 11.1431Z" fill="#A31D1D"/>
</g>
</svg>
