<svg width="24" height="24" viewBox="0 0 24 24" fill="none" xmlns="http://www.w3.org/2000/svg">
<g id="box-open-solid 1">
<path id="Vector" d="M4.29034 6.25831C4.37892 6.08007 4.57381 5.97779 4.77165 6.00409L12.0002 6.89825L19.2287 6.00409C19.4265 5.98072 19.6214 6.08299 19.71 6.25831L20.9413 8.69532C21.2071 9.21837 20.9236 9.85246 20.3567 10.0132L15.5318 11.3778C15.1213 11.4947 14.6813 11.3223 14.4628 10.9599L12.0002 6.89825L9.53751 10.9599C9.319 11.3223 8.87903 11.4947 8.46859 11.3778L3.64662 10.0132C3.07672 9.85246 2.7962 9.21837 3.06196 8.69532L4.29034 6.25831ZM12.0327 8.76837L13.6538 11.4391C14.0937 12.1638 14.9707 12.5086 15.7946 12.2749L19.5594 11.2112V16.0911C19.5594 16.7339 19.1165 17.295 18.4846 17.4528L12.4579 18.943C12.1567 19.019 11.8407 19.019 11.5425 18.943L5.51576 17.4528C4.88385 17.2921 4.44093 16.731 4.44093 16.0882V11.2083L8.20874 12.2749C9.02963 12.5086 9.90957 12.1638 10.3495 11.4391L11.9677 8.76837H12.0327Z" fill="#FFEFD1"/>
</g>
</svg>
