<svg width="49" height="57" viewBox="0 0 49 57" fill="none" xmlns="http://www.w3.org/2000/svg">
<g id="arrow pointer">
<path id="Exclude" fill-rule="evenodd" clip-rule="evenodd" d="M19.9293 7.82407C19.207 8.79976 19.417 10.1728 20.3985 10.891L25.7601 14.8137C26.7416 15.5318 28.1229 15.323 28.8453 14.3473C29.5677 13.3716 29.3576 11.9985 28.3761 11.2804L23.0145 7.35769C22.033 6.63958 20.6517 6.84839 19.9293 7.82407ZM37.355 20.573C36.6326 21.5487 36.8427 22.9218 37.8242 23.6399L43.186 27.5626C44.1675 28.2807 45.5488 28.0719 46.2712 27.0962C46.9935 26.1205 46.7835 24.7474 45.8019 24.0293L40.4402 20.1065C39.4586 19.3885 38.0774 19.5973 37.355 20.573ZM48.0798 10.9384C47.5909 9.82868 46.2897 9.32298 45.1733 9.80892L39.075 12.4634C37.9586 12.9494 37.4499 14.2429 37.9388 15.3527C38.4276 16.4624 39.7289 16.9681 40.8452 16.4821L46.9435 13.8276C48.0599 13.3417 48.5686 12.0481 48.0798 10.9384ZM34.9091 1.30272C33.6979 1.16869 32.6068 2.03609 32.4719 3.24011L31.7354 9.81737C31.6005 11.0214 32.4731 12.1061 33.6843 12.2401C34.8955 12.3742 35.9867 11.5068 36.1215 10.3028L36.8581 3.72549C36.9929 2.52147 36.1203 1.43676 34.9091 1.30272Z" fill="#1D1D1D"/>
<path id="Vector" d="M32.8801 20.9648L28.4361 52.3985C28.2899 53.4327 27.3282 54.1455 26.2963 54.0014C25.759 53.9263 25.2712 53.6247 24.9706 53.1678L19.0592 44.1727L12.7106 53.3395C11.8476 54.5848 10.1335 54.8986 8.88079 54.0407C7.62808 53.1827 7.31241 51.4788 8.17547 50.2336L14.3735 41.2704L4.30209 39.8634C3.26169 39.718 2.53609 38.7608 2.68231 37.7266C2.75782 37.1925 3.05998 36.7161 3.51112 36.416L29.7957 19.0383C30.208 18.7674 30.6937 18.6537 31.1797 18.7216C32.2713 18.8741 33.0336 19.8797 32.8801 20.9648Z" fill="#1D1D1D"/>
</g>
</svg>
