<svg width="19" height="23" viewBox="0 0 19 23" fill="none" xmlns="http://www.w3.org/2000/svg">
<g id="secure 1" clip-path="url(#clip0_2039_23008)">
<path id="secondary" d="M9.72695 21.9128L10.6954 21.4661C12.7258 20.5356 14.479 19.0294 15.7652 17.1107C17.0514 15.192 17.8214 12.9338 17.9919 10.581L18.4651 4.09231C18.4725 3.82379 18.3935 3.56068 18.2413 3.3468C18.0891 3.13292 17.8729 2.98117 17.6287 2.91682L9.72695 0.753906L1.82515 2.8698C1.58097 2.93415 1.36479 3.08591 1.21261 3.29978C1.06043 3.51366 0.981424 3.77677 0.988748 4.04529L1.46198 10.534C1.63247 12.8868 2.40252 15.1449 3.68869 17.0637C4.97487 18.9824 6.72812 20.4886 8.75848 21.4191L9.72695 21.9128Z" fill="#1D1D1D"/>
<path id="Exclude" fill-rule="evenodd" clip-rule="evenodd" d="M13.7016 7.09092C14.0736 7.48818 14.0736 8.13227 13.7016 8.52953L9.29953 13.2315C8.9276 13.6288 8.32459 13.6288 7.95266 13.2315L5.7516 10.8805C5.37967 10.4833 5.37967 9.83917 5.7516 9.4419C6.12353 9.04464 6.72654 9.04464 7.09847 9.4419L8.6261 11.0736L12.3548 7.09092C12.7267 6.69365 13.3297 6.69365 13.7016 7.09092Z" fill="#ECDCBF"/>
</g>
<defs>
<clipPath id="clip0_2039_23008">
<rect width="18.0952" height="21.3623" fill="white" transform="translate(0.723633 0.675781)"/>
</clipPath>
</defs>
</svg>
