<svg width="56" height="48" viewBox="0 0 56 48" fill="none" xmlns="http://www.w3.org/2000/svg">
<g id="truck-box">
<path id="Exclude" fill-rule="evenodd" clip-rule="evenodd" d="M28.0924 5.11763C28.3079 5.11763 28.5146 5.20907 28.6669 5.37183C28.8193 5.5346 28.9049 5.75535 28.9049 5.98553V37.2339H19.5595C18.4374 37.2339 17.5277 38.2055 17.5277 39.4041C17.5277 40.6026 18.4374 41.5742 19.5595 41.5742H30.9367C32.0588 41.5742 32.9684 40.6026 32.9684 39.4041V5.98553C32.9684 4.60423 32.4547 3.27951 31.5403 2.30279C30.6258 1.32606 29.3856 0.777344 28.0924 0.777344H5.33796C4.04475 0.777344 2.80451 1.32606 1.89007 2.30279C0.975632 3.27952 0.461914 4.60424 0.461914 5.98553C0.461914 7.18407 1.37156 8.15568 2.49366 8.15568C3.61576 8.15568 4.52541 7.18407 4.52541 5.98553C4.52541 5.75535 4.61101 5.53459 4.7634 5.37183C4.91578 5.20907 5.12246 5.11763 5.33796 5.11763H28.0924ZM2.49366 34.1959C1.37156 34.1959 0.461914 35.1675 0.461914 36.366C0.461914 37.7473 0.975632 39.072 1.89007 40.0488C2.80451 41.0255 4.04475 41.5742 5.33796 41.5742H8.18227C9.30437 41.5742 10.214 40.6026 10.214 39.4041C10.214 38.2055 9.30437 37.2339 8.18227 37.2339H5.33796C5.12246 37.2339 4.91578 37.1425 4.7634 36.9797C4.61101 36.817 4.52541 36.5962 4.52541 36.366C4.52541 35.1675 3.61576 34.1959 2.49366 34.1959Z" fill="#1D1D1D"/>
<path id="Exclude_2" fill-rule="evenodd" clip-rule="evenodd" d="M42.878 6.85364C43.9578 6.82107 45.0175 7.1724 45.8906 7.85317C46.7736 8.54162 47.4142 9.52696 47.7099 10.6509C47.7105 10.653 47.711 10.655 47.7115 10.6571L49.6251 17.8237L51.9763 18.3908C51.9894 18.3939 52.0025 18.3972 52.0155 18.4007C53.0974 18.6858 54.0552 19.3582 54.7295 20.3058C55.397 21.2439 55.7467 22.3958 55.7222 23.5731V36.3662C55.7222 37.7475 55.2085 39.0722 54.294 40.049C53.3796 41.0257 52.1394 41.5744 50.8462 41.5744H48.0019C46.8798 41.5744 45.9701 40.6028 45.9701 39.4043C45.9701 38.2057 46.8798 37.2341 48.0019 37.2341H50.8462C51.0617 37.2341 51.2683 37.1427 51.4207 36.9799C51.5731 36.8172 51.6587 36.5964 51.6587 36.3662V23.5457C51.6587 23.5246 51.659 23.5035 51.6596 23.4825C51.665 23.2842 51.6066 23.0899 51.4943 22.932C51.3848 22.7781 51.2303 22.6677 51.0556 22.6183L47.5543 21.7738C46.8295 21.599 46.2518 21.0154 46.048 20.2521L43.7982 11.826C43.749 11.6383 43.6421 11.4737 43.4947 11.3588C43.3473 11.2438 43.168 11.1852 42.9856 11.1924C42.9606 11.1934 42.9356 11.1939 42.9106 11.1939H32.9678V37.2341H36.6246C37.7468 37.2341 38.6564 38.2057 38.6564 39.4043C38.6564 40.6028 37.7468 41.5744 36.6246 41.5744H30.936C29.8139 41.5744 28.9043 40.6028 28.9043 39.4043V9.02378C28.9043 7.82524 29.8139 6.85364 30.936 6.85364H42.878Z" fill="#1D1D1D"/>
<path id="Exclude_3" fill-rule="evenodd" clip-rule="evenodd" d="M47.7729 33.5754C46.325 32.029 44.3613 31.1602 42.3138 31.1602C40.7868 31.1602 39.2942 31.6438 38.0246 32.5499C36.755 33.456 35.7654 34.7439 35.1811 36.2507C34.5968 37.7575 34.4439 39.4155 34.7418 41.0152C35.0397 42.6148 35.7749 44.0841 36.8547 45.2374C37.9344 46.3906 39.31 47.176 40.8076 47.4942C42.3052 47.8124 43.8575 47.6491 45.2682 47.0249C46.6789 46.4008 47.8847 45.3438 48.733 43.9878C49.5813 42.6317 50.0341 41.0373 50.0341 39.4064C50.0341 37.2194 49.2207 35.1219 47.7729 33.5754ZM42.3138 35.5004C43.2836 35.5004 44.2138 35.912 44.8996 36.6445C45.5853 37.377 45.9706 38.3705 45.9706 39.4064C45.9706 40.1789 45.7562 40.9341 45.3543 41.5764C44.9525 42.2188 44.3814 42.7194 43.7132 43.015C43.045 43.3107 42.3097 43.388 41.6004 43.2373C40.891 43.0866 40.2394 42.7146 39.728 42.1683C39.2166 41.6221 38.8683 40.9261 38.7272 40.1684C38.5861 39.4107 38.6585 38.6254 38.9353 37.9117C39.212 37.1979 39.6808 36.5879 40.2821 36.1587C40.8835 35.7295 41.5905 35.5004 42.3138 35.5004ZM19.3299 33.5754C17.882 32.029 15.9183 31.1602 13.8707 31.1602C12.3438 31.1602 10.8512 31.6438 9.58155 32.5499C8.31195 33.456 7.32241 34.7439 6.73807 36.2507C6.15374 37.7575 6.00085 39.4155 6.29874 41.0152C6.59663 42.6148 7.33193 44.0841 8.41163 45.2374C9.49135 46.3906 10.867 47.176 12.3646 47.4942C13.8622 47.8124 15.4145 47.6491 16.8252 47.0249C18.2359 46.4008 19.4417 45.3438 20.29 43.9878C21.1383 42.6317 21.5911 41.0373 21.5911 39.4064C21.5911 37.2194 20.7777 35.1219 19.3299 33.5754ZM13.8707 35.5004C14.8406 35.5004 15.7707 35.912 16.4565 36.6445C17.1423 37.377 17.5276 38.3705 17.5276 39.4064C17.5276 40.1789 17.3131 40.9341 16.9113 41.5764C16.5095 42.2188 15.9384 42.7194 15.2702 43.015C14.602 43.3107 13.8667 43.388 13.1573 43.2373C12.448 43.0866 11.7964 42.7146 11.285 42.1683C10.7735 41.6221 10.4253 40.9261 10.2842 40.1684C10.1431 39.4107 10.2155 38.6254 10.4922 37.9117C10.769 37.1979 11.2377 36.5879 11.8391 36.1587C12.4405 35.7295 13.1475 35.5004 13.8707 35.5004Z" fill="#1D1D1D"/>
</g>
</svg>
