<svg width="60" height="52" viewBox="0 0 60 52" fill="none" xmlns="http://www.w3.org/2000/svg">
<g id="Frame 1000004666">
<path id="Exclude" fill-rule="evenodd" clip-rule="evenodd" d="M15.9746 15.3151C15.9746 13.0139 17.8401 11.1484 20.1413 11.1484H20.4341C22.7353 11.1484 24.6008 13.0139 24.6008 15.3151C24.6008 17.6163 22.7353 19.4818 20.4341 19.4818H20.1413C17.8401 19.4818 15.9746 17.6163 15.9746 15.3151Z" fill="#1D1D1D"/>
<path id="Exclude_2" fill-rule="evenodd" clip-rule="evenodd" d="M7.0459 4.95145C6.85172 4.95145 6.6655 5.02859 6.5282 5.16589C6.39089 5.3032 6.31376 5.48942 6.31376 5.68359V31.2032C6.31376 32.4162 5.33038 33.3996 4.11733 33.3996C2.90427 33.3996 1.9209 32.4162 1.9209 31.2032V5.68359C1.9209 4.32436 2.46085 3.0208 3.42198 2.05967C4.3831 1.09855 5.68666 0.558594 7.0459 0.558594H53.903C55.2623 0.558594 56.5658 1.09855 57.527 2.05967C58.4881 3.02079 59.0281 4.32436 59.0281 5.68359V46.6836C59.0281 48.0428 58.4881 49.3464 57.527 50.3075C56.5658 51.2687 55.2623 51.8086 53.903 51.8086H15.4132C14.2002 51.8086 13.2168 50.8252 13.2168 49.6122C13.2168 48.3991 14.2002 47.4157 15.4132 47.4157H36.0368L29.5489 40.9278C28.6912 40.0701 28.6912 38.6794 29.5489 37.8216C30.4067 36.9638 31.7974 36.9638 32.6551 37.8216L42.2493 47.4157H53.903C54.0972 47.4157 54.2835 47.3386 54.4208 47.2013C54.5581 47.064 54.6352 46.8778 54.6352 46.6836V38.0147L40.11 23.4386L34.6665 28.9049C33.8106 29.7644 32.4199 29.7673 31.5603 28.9114C30.7008 28.0554 30.6979 26.6647 31.5538 25.8052L38.5531 18.7766C38.9652 18.3628 39.5251 18.1301 40.1091 18.13C40.6931 18.1299 41.2531 18.3624 41.6653 18.7761L54.6352 31.7914V5.68359C54.6352 5.48942 54.5581 5.3032 54.4208 5.16589C54.2834 5.02859 54.0972 4.95145 53.903 4.95145H7.0459Z" fill="#1D1D1D"/>
</g>
</svg>
