<svg width="73" height="73" viewBox="0 0 73 73" fill="none" xmlns="http://www.w3.org/2000/svg">
<g id="Frame 1000004670">
<path id="Exclude" fill-rule="evenodd" clip-rule="evenodd" d="M17.5113 6.05859C11.3027 6.05859 6.26953 11.0917 6.26953 17.3004V55.2784C6.26953 56.9352 4.92639 58.2784 3.26953 58.2784C1.61268 58.2784 0.269531 56.9352 0.269531 55.2784V17.3004C0.269531 7.77801 7.98895 0.0585938 17.5113 0.0585938H55.4893C65.0119 0.0585938 72.7311 7.77804 72.7311 17.3004V55.2784C72.7311 64.801 65.0119 72.5201 55.4893 72.5201H36.5003H27.5005C25.8436 72.5201 24.5005 71.177 24.5005 69.5201C24.5005 67.8633 25.8436 66.5201 27.5005 66.5201H36.5003H55.4893C61.6982 66.5201 66.7311 61.4872 66.7311 55.2784V17.3004C66.7311 11.0917 61.6982 6.05859 55.4893 6.05859H17.5113Z" fill="#1D1D1D"/>
<path id="Exclude_2" fill-rule="evenodd" clip-rule="evenodd" d="M25.2739 32.4161C24.5916 31.7337 23.4856 31.7337 22.8033 32.4161L22.8033 32.4162L16.6215 38.5988C15.45 39.7705 13.5505 39.7706 12.3788 38.5991C11.2072 37.4276 11.207 35.5281 12.3785 34.3565L18.5603 28.1739C18.5603 28.1739 18.5603 28.1739 18.5603 28.1738C21.5859 25.1478 26.4914 25.1478 29.517 28.1739L40.654 39.3131L49.7141 30.2512C49.7141 30.2512 49.7141 30.2512 49.7142 30.2512C52.7396 27.2251 57.6454 27.2251 60.6709 30.2513L71.8524 41.435C73.0239 42.6067 73.0237 44.5062 71.852 45.6776C70.6804 46.8491 68.7809 46.8489 67.6094 45.6772L56.4277 34.4935L56.4276 34.4934C55.7455 33.811 54.6394 33.811 53.9573 34.4934L53.9572 34.4934L44.8962 43.5561L52.1219 50.7832C53.2934 51.9549 53.2932 53.8544 52.1215 55.0258C50.9498 56.1973 49.0503 56.1971 47.8789 55.0254L38.5325 45.6772L25.2739 32.4161Z" fill="#1D1D1D"/>
</g>
</svg>
