<svg width="97" height="97" viewBox="0 0 97 97" fill="none" xmlns="http://www.w3.org/2000/svg">
<g id="payment-card">
<path id="Exclude" fill-rule="evenodd" clip-rule="evenodd" d="M20.5 27.2891C17.7386 27.2891 15.5 29.5276 15.5 32.2891V68.2891C15.5 71.0505 17.7386 73.2891 20.5 73.2891H76.5C79.2614 73.2891 81.5 71.0505 81.5 68.2891V32.2891C81.5 29.5276 79.2614 27.2891 76.5 27.2891H20.5ZM9.5 32.2891C9.5 26.2139 14.4249 21.2891 20.5 21.2891H76.5C82.5751 21.2891 87.5 26.2139 87.5 32.2891V68.2891C87.5 74.3642 82.5751 79.2891 76.5 79.2891H20.5C14.4249 79.2891 9.5 74.3642 9.5 68.2891V32.2891Z" fill="#1D1D1D"/>
<path id="Exclude_2" fill-rule="evenodd" clip-rule="evenodd" d="M9.5 40.2891C9.5 38.6322 10.8431 37.2891 12.5 37.2891H82.5C84.1569 37.2891 85.5 38.6322 85.5 40.2891C85.5 41.9459 84.1569 43.2891 82.5 43.2891H12.5C10.8431 43.2891 9.5 41.9459 9.5 40.2891Z" fill="#1D1D1D"/>
<path id="Exclude_3" fill-rule="evenodd" clip-rule="evenodd" d="M25.5 60.2891C25.5 58.6322 26.8431 57.2891 28.5 57.2891H36.5C38.1569 57.2891 39.5 58.6322 39.5 60.2891C39.5 61.9459 38.1569 63.2891 36.5 63.2891H28.5C26.8431 63.2891 25.5 61.9459 25.5 60.2891Z" fill="#1D1D1D"/>
</g>
</svg>
