<svg width="28" height="27" viewBox="0 0 28 27" fill="none" xmlns="http://www.w3.org/2000/svg">
<g id="Group 1000004572">
<path id="Exclude" fill-rule="evenodd" clip-rule="evenodd" d="M18.851 11.9884C19.4334 12.5714 19.4328 13.5161 18.8498 14.0985L7.687 25.2483C6.92059 26.0101 5.88385 26.4378 4.8032 26.4378C3.72255 26.4378 2.6858 26.0101 1.9194 25.2483L1.9131 25.242C1.15124 24.4756 0.723633 23.4389 0.723633 22.3582C0.723633 21.2776 1.15126 20.2408 1.91312 19.4744L1.91563 19.4719L12.933 8.44154C13.5153 7.85851 14.46 7.85796 15.0431 8.4403C15.6261 9.02265 15.6267 9.96737 15.0443 10.5504L4.02949 21.5782C4.02924 21.5785 4.02899 21.5787 4.02873 21.579C3.82315 21.7862 3.70777 22.0663 3.70777 22.3582C3.70777 22.649 3.82227 22.9281 4.0264 23.1351C4.23337 23.3392 4.51241 23.4536 4.8032 23.4536C5.09502 23.4536 5.375 23.3383 5.58219 23.1329C5.58252 23.1326 5.58285 23.1322 5.58318 23.1319L16.7409 11.9872C17.3239 11.4048 18.2687 11.4054 18.851 11.9884Z" fill="#1D1D1D"/>
<path id="Exclude_2" fill-rule="evenodd" clip-rule="evenodd" d="M24.0563 6.66586C24.0945 5.92172 23.9856 5.17734 23.7357 4.47535C23.6198 4.14959 23.4746 3.83593 23.3023 3.53805C21.8721 4.25654 20.5172 4.55314 19.4064 4.7963C19.3731 4.80358 19.3401 4.81082 19.3072 4.81802C17.822 5.14363 16.9771 5.37214 16.3183 6.00689C15.7883 6.64587 15.526 7.46601 15.5878 8.29531C15.6509 9.14344 16.048 9.93186 16.6918 10.4876C16.7107 10.5039 16.7292 10.5206 16.7472 10.5378C17.4768 11.2343 18.4438 11.6277 19.4524 11.6382C20.461 11.6487 21.4359 11.2757 22.1799 10.5945L22.189 10.5862C22.7427 10.0876 23.1927 9.48473 23.5131 8.81201C23.8335 8.1393 24.0181 7.41 24.0563 6.66586ZM26.5472 3.47482C26.9285 4.54649 27.0948 5.68287 27.0365 6.81889C26.9782 7.95491 26.6964 9.06827 26.2072 10.0952C25.7189 11.1204 25.0336 12.0393 24.1904 12.7997C22.8889 13.9892 21.1845 14.6406 19.4212 14.6222C17.6683 14.6039 15.9873 13.925 14.7135 12.7219C13.4882 11.6511 12.7329 10.1408 12.6119 8.51704C12.4899 6.88073 13.0222 5.26288 14.0917 4.01851C14.1161 3.99007 14.1417 3.96255 14.1682 3.93603C15.5102 2.594 17.1967 2.22505 18.5676 1.92513C18.6013 1.91775 18.6349 1.91042 18.6682 1.90311C20.1294 1.58276 21.4773 1.28388 22.8694 0.339412C23.4852 -0.0783776 24.3148 0.0214674 24.8139 0.573453C25.5768 1.41721 26.1658 2.40314 26.5472 3.47482Z" fill="#1D1D1D"/>
</g>
</svg>
