<svg width="87" height="81" viewBox="0 0 87 81" fill="none" xmlns="http://www.w3.org/2000/svg">
<g id="Frame 1000004668">
<path id="Vector" d="M41.6127 77.9385H17.4679L18.7042 34.1819C18.7377 33.0927 18.3581 32.0309 17.6411 31.2072C16.924 30.3835 15.9218 29.8582 14.8334 29.7357L5.94641 28.7372L2.92285 12.8191L31.0803 3.01505C31.6978 2.79955 32.3476 2.68947 33.002 2.68945C33.002 2.68945 33.9995 9.28711 43.4995 9.28711C52.4995 9.28711 54.296 2.68945 54.296 2.68945C54.9504 2.68947 55.6002 2.79955 56.2178 3.01505L84.3752 12.8191L81.3516 28.7372L72.4646 29.7357C71.3763 29.8582 70.374 30.3835 69.657 31.2072C68.9399 32.0309 68.5604 33.0927 68.5938 34.1819L69.2119 52.4674" stroke="#1D1D1D" stroke-width="4.66326" stroke-linecap="round" stroke-linejoin="round"/>
</g>
</svg>
