<svg width="55" height="57" viewBox="0 0 55 57" fill="none" xmlns="http://www.w3.org/2000/svg">
<g id="Group 1000004573">
<path id="Exclude" fill-rule="evenodd" clip-rule="evenodd" d="M28.9514 6.98163C29.6873 7.98083 29.4753 9.38703 28.4781 10.1224L23.0306 14.1398C22.0333 14.8752 20.6284 14.6613 19.8925 13.6621C19.1567 12.6629 19.3686 11.2567 20.3659 10.5213L25.8134 6.504C26.8106 5.76858 28.2156 5.98242 28.9514 6.98163ZM11.2464 20.0379C11.9822 21.0371 11.7703 22.4433 10.773 23.1787L5.32527 27.196C4.32802 27.9314 2.92309 27.7176 2.18726 26.7184C1.45144 25.7191 1.66337 24.313 2.66062 23.5775L8.10837 19.5602C9.10562 18.8248 10.5106 19.0387 11.2464 20.0379ZM0.327941 10.171C0.823675 9.03456 2.14635 8.51667 3.28222 9.01432L9.48717 11.7328C10.623 12.2305 11.142 13.5552 10.6462 14.6917C10.1505 15.8282 8.82783 16.3461 7.69196 15.8484L1.48701 13.1299C0.351138 12.6323 -0.167793 11.3075 0.327941 10.171ZM13.7097 0.303052C14.9413 0.165788 16.052 1.0541 16.1907 2.28715L16.9479 9.02298C17.0865 10.256 16.2005 11.3669 14.9689 11.5042C13.7373 11.6414 12.6266 10.7531 12.488 9.52006L11.7308 2.78423C11.5922 1.55118 12.4782 0.440317 13.7097 0.303052Z" fill="#1D1D1D"/>
<path id="Vector" d="M38.5733 21.518C37.1886 22.3175 36.7169 24.0843 37.5205 25.462L36.7926 24.2141C35.9891 22.8365 34.2131 22.3673 32.8284 23.1667C31.4437 23.9661 30.972 25.733 31.7756 27.1107L31.0477 25.8628C30.2442 24.4852 28.4682 24.0159 27.0835 24.8154C25.6988 25.6148 25.2271 27.3817 26.0306 28.7594L20.9358 20.0244C20.1322 18.6468 18.3563 18.1775 16.9715 18.977C15.5868 19.7764 15.1151 21.5433 15.9187 22.921L23.3987 35.7451C22.9042 35.7453 22.4019 35.8585 21.9428 36.1236C20.5581 36.923 20.0864 38.6899 20.89 40.0675L23.0735 43.8111C23.4039 44.3776 23.9193 44.8157 24.5319 45.0525L33.1854 49.6495L48.2367 40.9599L48.7159 35.1903C48.9207 34.4232 48.7606 33.2345 48.3603 32.5482L42.5376 22.5654C41.734 21.1878 39.958 20.7186 38.5733 21.518ZM33.9133 50.8974L34.6411 52.1452C35.0429 52.834 35.9296 53.0694 36.6232 52.6689L49.1659 45.4276C49.8595 45.0271 50.0941 44.1444 49.6924 43.4556L48.9645 42.2077L33.9133 50.8974Z" fill="#1D1D1D"/>
</g>
</svg>
