<svg width="61" height="48" viewBox="0 0 61 48" fill="none" xmlns="http://www.w3.org/2000/svg">
<g id="Frame 1000004663">
<g id="print">
<path id="Exclude" fill-rule="evenodd" clip-rule="evenodd" d="M1.54186 8.97465C2.38591 8.1355 3.53068 7.66406 4.72434 7.66406H32.9967C34.144 7.66406 35.074 8.58869 35.074 9.72928C35.074 10.8699 34.144 11.7945 32.9967 11.7945H4.72434C4.63252 11.7945 4.54446 11.8308 4.47954 11.8953C4.41461 11.9599 4.37813 12.0474 4.37813 12.1387V31.4141C4.37813 31.5054 4.41461 31.5929 4.47954 31.6574C4.54446 31.722 4.63252 31.7583 4.72434 31.7583H11.7766C12.9238 31.7583 13.8539 32.6829 13.8539 33.8235C13.8539 34.9641 12.9238 35.8887 11.7766 35.8887H4.72434C3.53068 35.8887 2.38591 35.4173 1.54186 34.5781C0.697813 33.739 0.223633 32.6008 0.223633 31.4141V12.1387C0.223633 10.952 0.697814 9.81381 1.54186 8.97465ZM45.9232 27.4112C47.0704 27.4112 48.0004 28.3358 48.0004 29.4764V31.4141C48.0004 32.6008 47.5262 33.739 46.6822 34.5781C45.8381 35.4173 44.6934 35.8887 43.4997 35.8887H36.4474C35.3002 35.8887 34.3702 34.9641 34.3702 33.8235C34.3702 32.6829 35.3002 31.7583 36.4474 31.7583H43.4997C43.5915 31.7583 43.6796 31.722 43.7445 31.6574C43.8094 31.5929 43.8459 31.5054 43.8459 31.4141V29.4764C43.8459 28.3358 44.7759 27.4112 45.9232 27.4112Z" fill="#1D1D1D"/>
<path id="Exclude_2" fill-rule="evenodd" clip-rule="evenodd" d="M9.91762 2.49881C9.91762 1.35822 10.8476 0.433594 11.9949 0.433594H36.2295C37.3767 0.433594 38.3067 1.35822 38.3067 2.49881V5.39011C38.3067 6.5307 37.3767 7.45533 36.2295 7.45533C35.0822 7.45533 34.1522 6.5307 34.1522 5.39011V4.56403H14.0721V7.66185H32.8366C33.9839 7.66185 34.9139 8.58648 34.9139 9.72707C34.9139 10.8677 33.9839 11.7923 32.8366 11.7923H11.9949C10.8476 11.7923 9.91762 10.8677 9.91762 9.72707V2.49881ZM12.3746 18.9953C12.5542 18.0133 13.4144 17.2995 14.4183 17.2995H33.806C34.8099 17.2995 35.6702 18.0133 35.8497 18.9953L40.6967 45.4989C40.8069 46.1014 40.6424 46.7215 40.2477 47.1917C39.8531 47.6618 39.2689 47.9336 38.6529 47.9336H9.57141C8.95545 47.9336 8.37127 47.6618 7.9766 47.1917C7.58192 46.7215 7.41748 46.1014 7.52766 45.4989L12.3746 18.9953ZM16.152 21.43L12.0604 43.8032H36.1639L32.0724 21.43H16.152Z" fill="#1D1D1D"/>
</g>
<g id="quality-5">
<path id="Exclude_3" fill-rule="evenodd" clip-rule="evenodd" d="M51.6247 10.7823C52.0362 11.1506 52.0712 11.7828 51.7028 12.1943L48.5584 15.7069C48.3685 15.919 48.0972 16.0401 47.8124 16.0399C47.5277 16.0396 47.2566 15.918 47.0671 15.7055L45.5008 13.9492C45.1332 13.537 45.1693 12.9049 45.5815 12.5373C45.9937 12.1697 46.6258 12.2058 46.9934 12.618L47.8148 13.539L50.2127 10.8604C50.581 10.4489 51.2132 10.4139 51.6247 10.7823Z" fill="#1D1D1D"/>
<path id="Exclude_4" fill-rule="evenodd" clip-rule="evenodd" d="M41.8639 16.6392C42.3156 16.9569 42.4243 17.5807 42.1066 18.0324L39.6225 21.5643L41.8545 22.2235C42.0621 22.2848 42.2441 22.4118 42.3734 22.5854L43.7631 24.4521L46.3596 20.7682C46.6777 20.3168 47.3016 20.2088 47.753 20.5269C48.2045 20.8451 48.3125 21.469 47.9943 21.9204L44.6026 26.7326C44.418 26.9946 44.1188 27.1522 43.7983 27.1564C43.4777 27.1606 43.1746 27.0108 42.9831 26.7536L40.9683 24.0471L37.7197 23.0878C37.4108 22.9966 37.1647 22.7621 37.0586 22.4579C36.9526 22.1537 36.9997 21.817 37.185 21.5535L40.4707 16.8818C40.7884 16.4301 41.4122 16.3214 41.8639 16.6392ZM55.3396 16.6392C55.7914 16.3214 56.4151 16.4301 56.7329 16.8818L60.0185 21.5535C60.2039 21.817 60.2509 22.1537 60.1449 22.4579C60.0389 22.7621 59.7928 22.9966 59.4838 23.0878L56.2353 24.0471L54.2204 26.7536C54.0289 27.0108 53.7258 27.1606 53.4053 27.1564C53.0847 27.1522 52.7856 26.9946 52.6009 26.7326L49.2092 21.9204C48.891 21.469 48.9991 20.8451 49.4505 20.5269C49.9019 20.2088 50.5258 20.3168 50.844 20.7682L53.4404 24.4521L54.8301 22.5854C54.9594 22.4118 55.1415 22.2848 55.3491 22.2235L57.5811 21.5643L55.097 18.0324C54.7792 17.5807 54.8879 16.9569 55.3396 16.6392Z" fill="#1D1D1D"/>
<path id="Exclude_5" fill-rule="evenodd" clip-rule="evenodd" d="M48.602 6.33203C44.7327 6.33203 41.6084 9.44865 41.6084 13.2779C41.6084 17.1072 44.7327 20.2238 48.602 20.2238C52.4714 20.2238 55.5957 17.1072 55.5957 13.2779C55.5957 9.44865 52.4714 6.33203 48.602 6.33203ZM39.1084 13.2779C39.1084 8.05426 43.3657 3.83203 48.602 3.83203C53.8384 3.83203 58.0957 8.05426 58.0957 13.2779C58.0957 18.5016 53.8384 22.7238 48.602 22.7238C43.3657 22.7238 39.1084 18.5016 39.1084 13.2779Z" fill="#1D1D1D"/>
</g>
</g>
</svg>
