<svg width="61" height="61" viewBox="0 0 61 61" fill="none" xmlns="http://www.w3.org/2000/svg">
<g id="Frame 1000004664">
<path id="Exclude" fill-rule="evenodd" clip-rule="evenodd" d="M5.60787 23.0248C5.32736 23.0248 5.05833 23.1341 4.85997 23.3287C4.66162 23.5233 4.55018 23.7873 4.55018 24.0625V54.2512C4.55018 54.5264 4.66162 54.7904 4.85997 54.985C5.05832 55.1796 5.32735 55.2889 5.60787 55.2889H51.7617C52.0422 55.2889 52.3113 55.1796 52.5096 54.985C52.708 54.7904 52.8194 54.5264 52.8194 54.2512V45.1946C52.8194 44.1004 53.7235 43.2134 54.8386 43.2134C55.9538 43.2134 56.8579 44.1004 56.8579 45.1946V54.2512C56.8579 55.5773 56.321 56.849 55.3652 57.7867C54.4095 58.7244 53.1133 59.2512 51.7617 59.2512H5.60787C4.25629 59.2512 2.96006 58.7244 2.00435 57.7867C1.04863 56.849 0.511719 55.5773 0.511719 54.2512V24.0625C0.511719 22.7364 1.04863 21.4646 2.00435 20.527C2.96006 19.5893 4.25629 19.0625 5.60787 19.0625H51.7617C53.1133 19.0625 54.4095 19.5893 55.3652 20.527C56.321 21.4647 56.8579 22.7364 56.8579 24.0625V33.1191C56.8579 34.2133 55.9538 35.1002 54.8386 35.1002C53.7235 35.1002 52.8194 34.2133 52.8194 33.1191V24.0625C52.8194 23.7873 52.708 23.5233 52.5096 23.3287C52.3113 23.1341 52.0422 23.0248 51.7617 23.0248H5.60787Z" fill="#1D1D1D"/>
<path id="Exclude_2" fill-rule="evenodd" clip-rule="evenodd" d="M35.0011 1.79651C35.6413 0.901296 36.8998 0.684378 37.8127 1.31188L52.9204 11.6968C53.8331 12.3242 54.0552 13.5585 53.4166 14.4546L47.9089 22.1829C47.5311 22.713 46.9133 23.0288 46.254 23.0288H10.4694C9.71602 23.0288 9.02528 22.6172 8.67779 21.9614C8.33031 21.3055 8.38389 20.5144 8.81677 19.9094L19.6168 4.81501C20.253 3.92577 21.5005 3.7052 22.4131 4.32059L29.6878 9.22604L35.0011 1.79651ZM27.3681 12.4697L21.7734 8.69704L14.354 19.0665H22.6503L27.3681 12.4697ZM27.5997 19.0665L31.8723 13.1344C31.9495 13.0272 32.0151 12.9136 32.0686 12.7954L37.148 5.69293L48.9509 13.8062L45.202 19.0665H27.5997ZM42.531 35.1042C42.2505 35.1042 41.9814 35.2136 41.7831 35.4082C41.5847 35.6028 41.4733 35.8668 41.4733 36.142V42.1797C41.4733 42.4549 41.5847 42.7189 41.7831 42.9135C41.9814 43.1081 42.2504 43.2174 42.531 43.2174H55.8964V35.1042H42.531ZM38.9274 32.6064C39.8832 31.6688 41.1794 31.142 42.531 31.142H57.9156C59.0308 31.142 59.9348 32.029 59.9348 33.1231V45.1986C59.9348 46.2927 59.0308 47.1797 57.9156 47.1797H42.531C41.1794 47.1797 39.8832 46.6529 38.9274 45.7152C37.9717 44.7776 37.4348 43.5058 37.4348 42.1797V36.142C37.4348 34.8159 37.9717 33.5441 38.9274 32.6064Z" fill="#1D1D1D"/>
</g>
</svg>
