<svg width="24" height="24" viewBox="0 0 24 24" fill="none" xmlns="http://www.w3.org/2000/svg">
<g clip-path="url(#clip0_1965_24715)">
<path fill-rule="evenodd" clip-rule="evenodd" d="M12 21C16.9706 21 21 16.9706 21 12C21 7.02944 16.9706 3 12 3C7.02944 3 3 7.02944 3 12C3 16.9706 7.02944 21 12 21ZM12.8021 8.82685C12.8021 8.38348 12.4435 8.02493 12.0001 8.02493C11.5568 8.02493 11.1982 8.38348 11.1982 8.82685V11.198H8.82707C8.38369 11.198 8.02515 11.5566 8.02515 11.9999C8.02515 12.4433 8.38369 12.8019 8.82707 12.8019H11.1982V15.173C11.1982 15.6164 11.5568 15.9749 12.0001 15.9749C12.4435 15.9749 12.8021 15.6164 12.8021 15.173V12.8019H15.1732C15.6166 12.8019 15.9751 12.4433 15.9751 11.9999C15.9751 11.5566 15.6166 11.198 15.1732 11.198H12.8021V8.82685Z" fill="#A31D1D"/>
</g>
<defs>
<clipPath id="clip0_1965_24715">
<rect width="18" height="18" fill="white" transform="translate(3 3)"/>
</clipPath>
</defs>
</svg>
