<svg width="24" height="25" viewBox="0 0 24 25" fill="none" xmlns="http://www.w3.org/2000/svg">
<g id="Component 10">
<path id="Vector (Stroke)" fill-rule="evenodd" clip-rule="evenodd" d="M3.21564 3.80194C3.23311 3.83237 3.24577 3.86603 3.25258 3.9021L5.42097 15.0173C5.50711 15.4627 5.69369 15.8689 5.95531 16.2153C6.12745 16.4433 6.33207 16.6454 6.56195 16.8157C6.81301 17.0018 7.09418 17.15 7.39605 17.2527C7.70927 17.3592 8.04476 17.4167 8.392 17.4167H20.5072C20.7925 17.4167 21.0494 17.3024 21.2325 17.1179C21.408 16.9409 21.5158 16.6994 21.5158 16.4324C21.5158 15.8869 21.0661 15.448 20.5072 15.448H8.392C8.05088 15.448 7.74325 15.2804 7.55929 15.0188C7.48263 14.9098 7.42745 14.7845 7.40026 14.6482L7.17333 13.4792H19.297C19.4456 13.4792 19.5922 13.4686 19.736 13.448C20.9134 13.2792 21.8992 12.4409 22.2176 11.2931L23.9405 5.04644C24.2305 4.00464 23.4236 2.97925 22.3184 2.97925H5.04697C5.00849 2.90001 4.96558 2.82343 4.91859 2.74977C4.49858 2.09141 3.75208 1.66675 2.9206 1.66675H1.00855C0.449646 1.66675 0 2.10562 0 2.65112C0 3.19663 0.449646 3.6355 1.00855 3.6355H2.9206C3.04656 3.6355 3.15762 3.70091 3.21564 3.80194ZM5.50042 4.97925H21.8844L20.2903 10.7586L20.29 10.7597C20.1791 11.1576 19.7881 11.4792 19.297 11.4792H6.76845L5.50042 4.97925ZM20.9946 19.3773C20.9721 19.353 20.9489 19.3292 20.925 19.3059C20.7993 19.1832 20.6586 19.0783 20.5072 18.993C20.2032 18.8217 19.8558 18.7292 19.4987 18.7292C18.9637 18.7292 18.4507 18.9367 18.0724 19.3059C18.0357 19.3416 18.0007 19.3786 17.9672 19.4167C17.6549 19.7723 17.4816 20.2264 17.4816 20.698C17.4816 21.2201 17.6941 21.7209 18.0724 22.0901C18.4507 22.4593 18.9637 22.6667 19.4987 22.6667C20.0337 22.6667 20.5467 22.4593 20.925 22.0901C21.3033 21.7209 21.5158 21.2201 21.5158 20.698C21.5158 20.2088 21.3293 19.7384 20.9946 19.3773ZM6.37498 19.0001C6.22746 19.0846 6.09123 19.1873 5.96974 19.3059C5.78244 19.4887 5.63386 19.7057 5.53249 19.9446C5.43112 20.1835 5.37895 20.4395 5.37895 20.698C5.37895 20.9565 5.43112 21.2125 5.53249 21.4514C5.63386 21.6903 5.78244 21.9073 5.96974 22.0901C6.15705 22.2729 6.37941 22.4179 6.62414 22.5169C6.86887 22.6158 7.13116 22.6667 7.39605 22.6667C7.66094 22.6667 7.92324 22.6158 8.16796 22.5169C8.41269 22.4179 8.63506 22.2729 8.82236 22.0901C9.00967 21.9073 9.15825 21.6903 9.25961 21.4514C9.36098 21.2125 9.41316 20.9565 9.41316 20.698C9.41316 20.4395 9.36098 20.1835 9.25961 19.9446C9.17803 19.7524 9.06587 19.5743 8.92755 19.4167C8.894 19.3785 8.85892 19.3416 8.82236 19.3059C8.69401 19.1806 8.54919 19.0731 8.392 18.986C8.3198 18.946 8.24499 18.9102 8.16796 18.8791C7.92324 18.7802 7.66094 18.7292 7.39605 18.7292C7.13116 18.7292 6.86887 18.7802 6.62414 18.8791C6.53814 18.9139 6.4549 18.9543 6.37498 19.0001Z" fill="#A31D1D"/>
</g>
</svg>
