<svg width="25" height="25" viewBox="0 0 25 25" fill="none" xmlns="http://www.w3.org/2000/svg">
<g id="cart-shopping" clip-path="url(#clip0_1384_9527)">
<path id="Vector" d="M0.5 2.65112C0.5 2.10562 0.949646 1.66675 1.50855 1.66675H3.4206C4.34511 1.66675 5.16456 2.19175 5.54696 2.97925H22.8184C23.9236 2.97925 24.7305 4.00464 24.4405 5.04644L22.7176 11.2931C22.3604 12.581 21.1627 13.4792 19.797 13.4792H7.67333L7.90025 14.6482C7.99271 15.1117 8.40873 15.448 8.892 15.448H21.0072C21.5661 15.448 22.0158 15.8869 22.0158 16.4324C22.0158 16.9779 21.5661 17.4167 21.0072 17.4167H8.892C7.438 17.4167 6.18992 16.4078 5.92097 15.0173L3.75258 3.9021C3.72317 3.74624 3.58449 3.6355 3.4206 3.6355H1.50855C0.949646 3.6355 0.5 3.19663 0.5 2.65112ZM5.87895 20.698C5.87895 20.4395 5.93112 20.1834 6.03249 19.9446C6.13386 19.7057 6.28244 19.4887 6.46974 19.3059C6.65705 19.1231 6.87941 18.978 7.12414 18.8791C7.36887 18.7802 7.63116 18.7292 7.89605 18.7292C8.16094 18.7292 8.42324 18.7802 8.66796 18.8791C8.91269 18.978 9.13506 19.1231 9.32236 19.3059C9.50967 19.4887 9.65825 19.7057 9.75961 19.9446C9.86098 20.1834 9.91316 20.4395 9.91316 20.698C9.91316 20.9565 9.86098 21.2125 9.75961 21.4514C9.65825 21.6903 9.50967 21.9073 9.32236 22.0901C9.13506 22.2729 8.91269 22.4179 8.66796 22.5169C8.42324 22.6158 8.16094 22.6667 7.89605 22.6667C7.63116 22.6667 7.36887 22.6158 7.12414 22.5169C6.87941 22.4179 6.65705 22.2729 6.46974 22.0901C6.28244 21.9073 6.13386 21.6903 6.03249 21.4514C5.93112 21.2125 5.87895 20.9565 5.87895 20.698ZM19.9987 18.7292C20.5337 18.7292 21.0467 18.9367 21.425 19.3059C21.8033 19.6751 22.0158 20.1759 22.0158 20.698C22.0158 21.2201 21.8033 21.7209 21.425 22.0901C21.0467 22.4593 20.5337 22.6667 19.9987 22.6667C19.4637 22.6667 18.9507 22.4593 18.5724 22.0901C18.1941 21.7209 17.9816 21.2201 17.9816 20.698C17.9816 20.1759 18.1941 19.6751 18.5724 19.3059C18.9507 18.9367 19.4637 18.7292 19.9987 18.7292Z" fill="#A31D1D"/>
</g>
<defs>
<clipPath id="clip0_1384_9527">
<rect width="24" height="24" fill="white" transform="translate(0.5 0.666748)"/>
</clipPath>
</defs>
</svg>
