<svg width="22" height="22" viewBox="0 0 22 22" fill="none" xmlns="http://www.w3.org/2000/svg">
<g id="cart-shopping" clip-path="url(#clip0_1454_121)">
<path id="Vector" d="M0.5 1.8197C0.5 1.34238 0.893441 0.958374 1.38248 0.958374H3.05553C3.86447 0.958374 4.58149 1.41775 4.91609 2.10681H20.0286C20.9957 2.10681 21.7017 3.00403 21.448 3.9156L19.9404 9.38144C19.6278 10.5083 18.5799 11.2943 17.3849 11.2943H6.77666L6.97522 12.3171C7.05612 12.7227 7.42014 13.017 7.843 13.017H18.4438C18.9329 13.017 19.3263 13.401 19.3263 13.8783C19.3263 14.3556 18.9329 14.7396 18.4438 14.7396H7.843C6.57075 14.7396 5.47868 13.8568 5.24335 12.6401L3.34601 2.91431C3.32027 2.77793 3.19893 2.68103 3.05553 2.68103H1.38248C0.893441 2.68103 0.5 2.29702 0.5 1.8197ZM5.20658 17.6107C5.20658 17.3845 5.25223 17.1605 5.34093 16.9515C5.42963 16.7425 5.55963 16.5526 5.72353 16.3926C5.88742 16.2327 6.08199 16.1058 6.29612 16.0192C6.51026 15.9326 6.73977 15.8881 6.97155 15.8881C7.20332 15.8881 7.43283 15.9326 7.64697 16.0192C7.8611 16.1058 8.05567 16.2327 8.21957 16.3926C8.38346 16.5526 8.51346 16.7425 8.60216 16.9515C8.69086 17.1605 8.73651 17.3845 8.73651 17.6107C8.73651 17.8369 8.69086 18.0609 8.60216 18.2699C8.51346 18.479 8.38346 18.6689 8.21957 18.8288C8.05567 18.9888 7.8611 19.1157 7.64697 19.2022C7.43283 19.2888 7.20332 19.3334 6.97155 19.3334C6.73977 19.3334 6.51026 19.2888 6.29612 19.2022C6.08199 19.1157 5.88742 18.9888 5.72353 18.8288C5.55963 18.6689 5.42963 18.479 5.34093 18.2699C5.25223 18.0609 5.20658 17.8369 5.20658 17.6107ZM17.5613 15.8881C18.0294 15.8881 18.4784 16.0696 18.8094 16.3926C19.1404 16.7157 19.3263 17.1538 19.3263 17.6107C19.3263 18.0676 19.1404 18.5058 18.8094 18.8288C18.4784 19.1519 18.0294 19.3334 17.5613 19.3334C17.0933 19.3334 16.6443 19.1519 16.3133 18.8288C15.9823 18.5058 15.7964 18.0676 15.7964 17.6107C15.7964 17.1538 15.9823 16.7157 16.3133 16.3926C16.6443 16.0696 17.0933 15.8881 17.5613 15.8881Z" fill="#FFEFD1"/>
</g>
<defs>
<clipPath id="clip0_1454_121">
<rect width="21" height="21" fill="white" transform="translate(0.5 0.0833359)"/>
</clipPath>
</defs>
</svg>
