<svg width="24" height="24" viewBox="0 0 24 24" fill="none" xmlns="http://www.w3.org/2000/svg">
<g id="cart-shopping-stroke">
<path id="Vector (Stroke)" fill-rule="evenodd" clip-rule="evenodd" d="M3.21564 3.1352C3.23311 3.16562 3.24577 3.19928 3.25258 3.23535L5.42097 14.3506C5.50711 14.7959 5.69369 15.2021 5.95531 15.5486C6.12745 15.7765 6.33207 15.9786 6.56195 16.149C6.81301 16.335 7.09418 16.4832 7.39605 16.5859C7.70927 16.6925 8.04476 16.75 8.392 16.75H20.5072C20.7925 16.75 21.0494 16.6356 21.2325 16.4511C21.408 16.2741 21.5158 16.0327 21.5158 15.7656C21.5158 15.2201 21.0661 14.7812 20.5072 14.7812H8.392C8.05088 14.7812 7.74325 14.6137 7.55929 14.3521C7.48263 14.2431 7.42745 14.1178 7.40026 13.9814L7.17333 12.8125H19.297C19.4456 12.8125 19.5922 12.8019 19.736 12.7812C20.9134 12.6124 21.8992 11.7741 22.2176 10.6264L23.9405 4.37969C24.2305 3.33789 23.4236 2.3125 22.3184 2.3125H5.04697C5.00849 2.23326 4.96558 2.15668 4.91859 2.08302C4.49858 1.42466 3.75208 1 2.9206 1H1.00855C0.449646 1 0 1.43887 0 1.98438C0 2.52988 0.449646 2.96875 1.00855 2.96875H2.9206C3.04656 2.96875 3.15762 3.03416 3.21564 3.1352ZM5.50042 4.3125H21.8844L20.2903 10.0918C20.2902 10.0922 20.2901 10.0926 20.29 10.0929C20.1791 10.4909 19.7881 10.8125 19.297 10.8125H6.76845L5.50042 4.3125ZM20.9946 18.7106C20.9721 18.6863 20.9489 18.6624 20.925 18.6391C20.7993 18.5164 20.6586 18.4116 20.5072 18.3263C20.2032 18.1549 19.8558 18.0625 19.4987 18.0625C18.9637 18.0625 18.4507 18.2699 18.0724 18.6391C18.0357 18.6749 18.0007 18.7119 17.9672 18.75C17.6549 19.1055 17.4816 19.5597 17.4816 20.0312C17.4816 20.5534 17.6941 21.0542 18.0724 21.4234C18.4507 21.7926 18.9637 22 19.4987 22C20.0337 22 20.5467 21.7926 20.925 21.4234C21.3033 21.0542 21.5158 20.5534 21.5158 20.0312C21.5158 19.5421 21.3293 19.0716 20.9946 18.7106ZM6.37498 18.3334C6.22746 18.4179 6.09123 18.5206 5.96974 18.6391C5.78244 18.8219 5.63386 19.039 5.53249 19.2778C5.43112 19.5167 5.37895 19.7727 5.37895 20.0312C5.37895 20.2898 5.43112 20.5458 5.53249 20.7847C5.63386 21.0235 5.78244 21.2406 5.96974 21.4234C6.15705 21.6062 6.37941 21.7512 6.62414 21.8501C6.86887 21.9491 7.13116 22 7.39605 22C7.66094 22 7.92324 21.9491 8.16796 21.8501C8.41269 21.7512 8.63506 21.6062 8.82236 21.4234C9.00967 21.2406 9.15825 21.0235 9.25961 20.7847C9.36098 20.5458 9.41316 20.2898 9.41316 20.0312C9.41316 19.7727 9.36098 19.5167 9.25961 19.2778C9.17803 19.0856 9.06587 18.9075 8.92755 18.75C8.894 18.7118 8.85892 18.6748 8.82236 18.6391C8.69401 18.5139 8.54919 18.4063 8.392 18.3192C8.3198 18.2792 8.24499 18.2435 8.16796 18.2124C7.92324 18.1134 7.66094 18.0625 7.39605 18.0625C7.13116 18.0625 6.86887 18.1134 6.62414 18.2124C6.53814 18.2471 6.4549 18.2876 6.37498 18.3334Z" fill="#ECDCBF"/>
</g>
</svg>
