<svg width="16" height="15" viewBox="0 0 16 15" fill="none" xmlns="http://www.w3.org/2000/svg">
<g id="Check" clip-path="url(#clip0_1983_25611)">
<g id="Vector">
<path d="M14.0938 7.5C14.0938 5.88384 13.4517 4.33387 12.3089 3.19107C11.1661 2.04827 9.61616 1.40625 8 1.40625C6.38384 1.40625 4.83387 2.04827 3.69107 3.19107C2.54827 4.33387 1.90625 5.88384 1.90625 7.5C1.90625 9.11616 2.54827 10.6661 3.69107 11.8089C4.83387 12.9517 6.38384 13.5938 8 13.5938C9.61616 13.5938 11.1661 12.9517 12.3089 11.8089C13.4517 10.6661 14.0938 9.11616 14.0938 7.5ZM0.5 7.5C0.5 5.51088 1.29018 3.60322 2.6967 2.1967C4.10322 0.790176 6.01088 0 8 0C9.98912 0 11.8968 0.790176 13.3033 2.1967C14.7098 3.60322 15.5 5.51088 15.5 7.5C15.5 9.48912 14.7098 11.3968 13.3033 12.8033C11.8968 14.2098 9.98912 15 8 15C6.01088 15 4.10322 14.2098 2.6967 12.8033C1.29018 11.3968 0.5 9.48912 0.5 7.5Z" fill="black"/>
<path d="M12.375 7.5C12.375 9.91625 10.4162 11.875 8 11.875C5.58375 11.875 3.625 9.91625 3.625 7.5C3.625 5.08375 5.58375 3.125 8 3.125C10.4162 3.125 12.375 5.08375 12.375 7.5Z" fill="black"/>
</g>
</g>
<defs>
<clipPath id="clip0_1983_25611">
<rect width="15" height="15" fill="white" transform="translate(0.5)"/>
</clipPath>
</defs>
</svg>
