<svg width="33" height="32" viewBox="0 0 33 32" fill="none" xmlns="http://www.w3.org/2000/svg">
<g id="circle-xmark">
<path id="Vector" d="M16.5 28C19.6826 28 22.7348 26.7357 24.9853 24.4853C27.2357 22.2348 28.5 19.1826 28.5 16C28.5 12.8174 27.2357 9.76516 24.9853 7.51472C22.7348 5.26428 19.6826 4 16.5 4C13.3174 4 10.2652 5.26428 8.01472 7.51472C5.76428 9.76516 4.5 12.8174 4.5 16C4.5 19.1826 5.76428 22.2348 8.01472 24.4853C10.2652 26.7357 13.3174 28 16.5 28ZM12.7031 12.2031C13.1438 11.7625 13.8562 11.7625 14.2922 12.2031L16.4953 14.4062L18.6984 12.2031C19.1391 11.7625 19.8516 11.7625 20.2875 12.2031C20.7234 12.6438 20.7281 13.3562 20.2875 13.7922L18.0844 15.9953L20.2875 18.1984C20.7281 18.6391 20.7281 19.3516 20.2875 19.7875C19.8469 20.2234 19.1344 20.2281 18.6984 19.7875L16.4953 17.5844L14.2922 19.7875C13.8516 20.2281 13.1391 20.2281 12.7031 19.7875C12.2672 19.3469 12.2625 18.6344 12.7031 18.1984L14.9062 15.9953L12.7031 13.7922C12.2625 13.3516 12.2625 12.6391 12.7031 12.2031Z" fill="#CDB17E"/>
</g>
</svg>
