<svg width="24" height="24" viewBox="0 0 24 24" fill="none" xmlns="http://www.w3.org/2000/svg">
<g id="filter-stroke">
<path id="Vector (Stroke)" fill-rule="evenodd" clip-rule="evenodd" d="M2.1377 3.5L10.5478 13.7759C10.8402 14.1333 11 14.5808 11 15.0426V18.5005L13.0002 20.0007V15.0426C13.0002 14.5808 13.16 14.1333 13.4524 13.776L21.8617 3.5H2.1377ZM0.421643 4.56103L9.00003 15.0426V18.7505C9.00003 19.224 9.22035 19.6693 9.60005 19.9506L12.6001 22.2006C13.0548 22.5428 13.6595 22.5944 14.1705 22.3413C14.6814 22.0881 15.0002 21.5678 15.0002 21.0006V15.0426L23.5739 4.56572C24.0333 4.0032 24.127 3.22974 23.8177 2.57347C23.5083 1.9172 22.852 1.5 22.1254 1.5H1.87481C1.14823 1.5 0.491957 1.9172 0.182573 2.57347C-0.131499 3.22505 -0.0330585 4.0032 0.421643 4.56103Z" fill="#A31D1D"/>
</g>
</svg>
