<svg width="33" height="32" viewBox="0 0 33 32" fill="none" xmlns="http://www.w3.org/2000/svg">
<g id="house">
<path id="Vector" d="M28.4937 15.977C28.4937 16.7269 27.8685 17.3142 27.16 17.3142H25.8263L25.8555 23.9879C25.8555 24.1004 25.8472 24.2129 25.8347 24.3254V25.0002C25.8347 25.9209 25.0887 26.6666 24.1676 26.6666H23.5007C23.4549 26.6666 23.4091 26.6666 23.3632 26.6624C23.3049 26.6666 23.2465 26.6666 23.1882 26.6666L21.8336 26.6624H20.8334C19.9123 26.6624 19.1663 25.9167 19.1663 24.9961V23.9963V21.3301C19.1663 20.5928 18.5703 19.9971 17.8326 19.9971H15.1653C14.4276 19.9971 13.8316 20.5928 13.8316 21.3301V23.9963V24.9961C13.8316 25.9167 13.0856 26.6624 12.1645 26.6624H11.1642H9.83471C9.7722 26.6624 9.70968 26.6583 9.64716 26.6541C9.59715 26.6583 9.54714 26.6624 9.49713 26.6624H8.83029C7.90922 26.6624 7.16319 25.9167 7.16319 24.9961V20.3303C7.16319 20.2928 7.16319 20.2512 7.16736 20.2137V17.3101H5.83368C5.08348 17.3101 4.5 16.7269 4.5 15.9728C4.5 15.5979 4.62503 15.2646 4.91677 14.973L15.5987 5.66652C15.8904 5.37491 16.2239 5.33325 16.5156 5.33325C16.8073 5.33325 17.1408 5.41657 17.3908 5.62486L28.0353 14.9772C28.3687 15.2688 28.5354 15.6021 28.4937 15.977Z" fill="#A31D1D"/>
</g>
</svg>
