<svg width="33" height="32" viewBox="0 0 33 32" fill="none" xmlns="http://www.w3.org/2000/svg">
<g id="house">
<path id="Exclude" fill-rule="evenodd" clip-rule="evenodd" d="M16.3417 7.09695C16.3396 7.09819 16.3325 7.10248 16.3205 7.11451C16.3056 7.1294 16.2902 7.14379 16.2743 7.15763L6.44294 15.7231C6.36736 15.8045 6.34613 15.8723 6.34613 15.9751C6.34613 16.079 6.38407 16.1529 6.43219 16.2011C6.48036 16.2494 6.55314 16.2864 6.65414 16.2864H7.88521C8.39501 16.2864 8.80828 16.6996 8.80828 17.2094V19.8897C8.80828 19.9174 8.80703 19.9452 8.80453 19.9728L8.80447 19.9769L8.80443 19.9973V24.3041C8.80443 24.6438 9.0794 24.9192 9.42021 24.9192L10.0351 24.9192C10.0356 24.9192 10.0392 24.9191 10.0474 24.9186C10.0594 24.9179 10.0729 24.9168 10.0976 24.9147C10.1435 24.9109 10.1897 24.9105 10.2356 24.9136C10.2985 24.9177 10.3255 24.9192 10.3474 24.9192H12.4979C12.8387 24.9192 13.1137 24.6438 13.1137 24.3041V20.9202C13.1137 19.7294 14.0775 18.7666 15.2678 18.7666H17.73C18.9203 18.7666 19.8841 19.7294 19.8841 20.9202V24.3041C19.8841 24.6438 20.1591 24.9192 20.4999 24.9192H21.426L22.6735 24.923C22.674 24.923 22.6745 24.923 22.6751 24.923C22.7332 24.923 22.7539 24.9226 22.7693 24.9215C22.819 24.918 22.869 24.9185 22.9186 24.923C22.9137 24.9225 22.9122 24.9226 22.9162 24.9227C22.9171 24.9227 22.9173 24.923 22.9186 24.923L22.9355 24.923L22.962 24.923H23.5776C23.9184 24.923 24.1933 24.6476 24.1933 24.308V23.685C24.1933 23.651 24.1952 23.6169 24.199 23.583C24.2081 23.5014 24.2125 23.434 24.2126 23.3753C24.2126 23.3747 24.2126 23.3741 24.2126 23.3735L24.1856 17.2173C24.1846 16.9718 24.2814 16.736 24.4546 16.562C24.6278 16.388 24.8632 16.2902 25.1087 16.2902H26.3398C26.4103 16.2902 26.4896 16.2601 26.5536 16.1972C26.615 16.1369 26.6478 16.061 26.6478 15.9789C26.6478 15.9459 26.6496 15.9129 26.6531 15.88C26.647 15.8673 26.621 15.8217 26.54 15.7508L26.5384 15.7495L16.7274 7.12936C16.7175 7.12222 16.6963 7.10965 16.6592 7.09813C16.6155 7.08458 16.564 7.07709 16.5143 7.07709C16.4192 7.07709 16.3769 7.08488 16.3562 7.09107C16.348 7.09355 16.344 7.09558 16.3417 7.09695ZM15.0412 5.78344C15.5612 5.28138 16.1573 5.23096 16.5143 5.23096C16.9347 5.23096 17.4725 5.34711 17.9129 5.71395L17.9314 5.72976L27.7554 14.3612C27.7551 14.361 27.7556 14.3614 27.7554 14.3612C28.2039 14.7538 28.5529 15.3199 28.4934 16.0288C28.4664 17.2217 27.4725 18.1363 26.3398 18.1363H26.0358L26.0587 23.3735C26.0587 23.5013 26.0506 23.6225 26.0395 23.7336V24.308C26.0395 25.668 24.9372 26.7692 23.5776 26.7692L22.955 26.7692C22.9287 26.7692 22.8835 26.7693 22.8305 26.7668C22.7705 26.7692 22.7172 26.7692 22.6812 26.7692L22.6735 26.7692L22.6707 26.7692L21.4232 26.7653H20.4999C19.1403 26.7653 18.038 25.6641 18.038 24.3041V20.9202C18.038 20.7498 17.9015 20.6128 17.73 20.6128H15.2678C15.0963 20.6128 14.9598 20.7498 14.9598 20.9202V24.3041C14.9598 25.6641 13.8575 26.7653 12.4979 26.7653H10.3474C10.2869 26.7653 10.2286 26.7627 10.1808 26.76C10.1397 26.7628 10.0888 26.7653 10.0357 26.7653H9.42021C8.0606 26.7653 6.9583 25.6641 6.9583 24.3041V19.9973C6.9583 19.9957 6.9583 19.9937 6.95829 19.9915C6.95823 19.9688 6.9581 19.9152 6.96215 19.8527V18.1325H6.65414C5.45037 18.1325 4.5 17.1794 4.5 15.9751C4.5 15.3932 4.70639 14.848 5.15522 14.3993C5.17012 14.3844 5.18553 14.3701 5.20142 14.3562L15.0412 5.78344Z" fill="#A31D1D"/>
</g>
</svg>
