<svg width="20" height="21" viewBox="0 0 20 21" fill="none" xmlns="http://www.w3.org/2000/svg">
<g id="image">
<path id="Vector" d="M2.5 6.3125C2.5 5.27832 3.34082 4.4375 4.375 4.4375H15.625C16.6592 4.4375 17.5 5.27832 17.5 6.3125V15.6875C17.5 16.7217 16.6592 17.5625 15.625 17.5625H4.375C3.34082 17.5625 2.5 16.7217 2.5 15.6875V6.3125ZM11.9863 9.43262C11.8545 9.23926 11.6377 9.125 11.4062 9.125C11.1748 9.125 10.9551 9.23926 10.8262 9.43262L8.27734 13.1709L7.50098 12.2012C7.36621 12.0342 7.16406 11.9375 6.95312 11.9375C6.74219 11.9375 6.53711 12.0342 6.40527 12.2012L4.53027 14.5449C4.36035 14.7559 4.32813 15.0459 4.44531 15.2891C4.5625 15.5322 4.80859 15.6875 5.07812 15.6875H7.89062H8.82812H14.9219C15.1826 15.6875 15.4229 15.5439 15.543 15.3125C15.6631 15.0811 15.6484 14.8027 15.502 14.5889L11.9863 9.43262ZM5.78125 9.125C6.15421 9.125 6.5119 8.97684 6.77562 8.71312C7.03934 8.4494 7.1875 8.09171 7.1875 7.71875C7.1875 7.34579 7.03934 6.9881 6.77562 6.72438C6.5119 6.46066 6.15421 6.3125 5.78125 6.3125C5.40829 6.3125 5.0506 6.46066 4.78688 6.72438C4.52316 6.9881 4.375 7.34579 4.375 7.71875C4.375 8.09171 4.52316 8.4494 4.78688 8.71312C5.0506 8.97684 5.40829 9.125 5.78125 9.125Z" fill="black"/>
</g>
</svg>
