<svg width="24" height="28" viewBox="0 0 24 28" fill="none" xmlns="http://www.w3.org/2000/svg">
<g id="instagram 1" clip-path="url(#clip0_799_6322)">
<path id="Vector" d="M12.0055 7.83987C8.59833 7.83987 5.85011 10.5881 5.85011 13.9952C5.85011 17.4024 8.59833 20.1506 12.0055 20.1506C15.4126 20.1506 18.1608 17.4024 18.1608 13.9952C18.1608 10.5881 15.4126 7.83987 12.0055 7.83987ZM12.0055 17.997C9.80368 17.997 8.00368 16.2024 8.00368 13.9952C8.00368 11.7881 9.79833 9.99344 12.0055 9.99344C14.2126 9.99344 16.0073 11.7881 16.0073 13.9952C16.0073 16.2024 14.2073 17.997 12.0055 17.997ZM19.8483 7.58809C19.8483 8.3863 19.2055 9.0238 18.4126 9.0238C17.6144 9.0238 16.9769 8.38094 16.9769 7.58809C16.9769 6.79523 17.6198 6.15237 18.4126 6.15237C19.2055 6.15237 19.8483 6.79523 19.8483 7.58809ZM23.9251 9.04523C23.834 7.12201 23.3948 5.41844 21.9858 4.01487C20.5823 2.6113 18.8787 2.17201 16.9555 2.07559C14.9733 1.96309 9.03225 1.96309 7.05011 2.07559C5.13225 2.16666 3.42868 2.60594 2.01975 4.00951C0.610826 5.41309 0.176897 7.11666 0.0804687 9.03987C-0.0320312 11.022 -0.0320312 16.9631 0.0804687 18.9452C0.17154 20.8684 0.610826 22.572 2.01975 23.9756C3.42868 25.3792 5.1269 25.8184 7.05011 25.9149C9.03225 26.0274 14.9733 26.0274 16.9555 25.9149C18.8787 25.8238 20.5823 25.3845 21.9858 23.9756C23.3894 22.572 23.8287 20.8684 23.9251 18.9452C24.0376 16.9631 24.0376 11.0274 23.9251 9.04523ZM21.3644 21.072C20.9465 22.122 20.1376 22.9309 19.0823 23.3542C17.5019 23.9809 13.7519 23.8363 12.0055 23.8363C10.259 23.8363 6.50368 23.9756 4.92868 23.3542C3.87868 22.9363 3.06975 22.1274 2.64654 21.072C2.01975 19.4917 2.1644 15.7417 2.1644 13.9952C2.1644 12.2488 2.02511 8.49344 2.64654 6.91844C3.0644 5.86844 3.87333 5.05951 4.92868 4.6363C6.50904 4.00951 10.259 4.15416 12.0055 4.15416C13.7519 4.15416 17.5073 4.01487 19.0823 4.6363C20.1323 5.05416 20.9412 5.86309 21.3644 6.91844C21.9912 8.4988 21.8465 12.2488 21.8465 13.9952C21.8465 15.7417 21.9912 19.497 21.3644 21.072Z" fill="#A31D1D"/>
</g>
<defs>
<clipPath id="clip0_799_6322">
<rect width="24" height="27.4286" fill="white" transform="translate(0 0.286133)"/>
</clipPath>
</defs>
</svg>
