<svg width="24" height="28" viewBox="0 0 24 28" fill="none" xmlns="http://www.w3.org/2000/svg">
<g id="instagram 1" clip-path="url(#clip0_799_3821)">
<path id="Vector" d="M12.0055 7.83889C8.59833 7.83889 5.85011 10.5871 5.85011 13.9943C5.85011 17.4014 8.59833 20.1496 12.0055 20.1496C15.4126 20.1496 18.1608 17.4014 18.1608 13.9943C18.1608 10.5871 15.4126 7.83889 12.0055 7.83889ZM12.0055 17.996C9.80368 17.996 8.00368 16.2014 8.00368 13.9943C8.00368 11.7871 9.79833 9.99247 12.0055 9.99247C14.2126 9.99247 16.0073 11.7871 16.0073 13.9943C16.0073 16.2014 14.2073 17.996 12.0055 17.996ZM19.8483 7.58711C19.8483 8.38532 19.2055 9.02282 18.4126 9.02282C17.6144 9.02282 16.9769 8.37997 16.9769 7.58711C16.9769 6.79425 17.6198 6.15139 18.4126 6.15139C19.2055 6.15139 19.8483 6.79425 19.8483 7.58711ZM23.9251 9.04425C23.834 7.12104 23.3948 5.41747 21.9858 4.0139C20.5823 2.61032 18.8787 2.17104 16.9555 2.07461C14.9733 1.96211 9.03226 1.96211 7.05011 2.07461C5.13225 2.16568 3.42868 2.60497 2.01975 4.00854C0.610826 5.41211 0.176897 7.11568 0.0804687 9.0389C-0.0320312 11.021 -0.0320312 16.9621 0.0804687 18.9443C0.17154 20.8675 0.610826 22.571 2.01975 23.9746C3.42868 25.3782 5.1269 25.8175 7.05011 25.9139C9.03226 26.0264 14.9733 26.0264 16.9555 25.9139C18.8787 25.8228 20.5823 25.3835 21.9858 23.9746C23.3894 22.571 23.8287 20.8675 23.9251 18.9443C24.0376 16.9621 24.0376 11.0264 23.9251 9.04425ZM21.3644 21.071C20.9465 22.121 20.1376 22.93 19.0823 23.3532C17.5019 23.98 13.7519 23.8353 12.0055 23.8353C10.259 23.8353 6.50368 23.9746 4.92868 23.3532C3.87868 22.9353 3.06975 22.1264 2.64654 21.071C2.01975 19.4907 2.1644 15.7407 2.1644 13.9943C2.1644 12.2478 2.02511 8.49247 2.64654 6.91747C3.0644 5.86747 3.87333 5.05854 4.92868 4.63532C6.50904 4.00854 10.259 4.15318 12.0055 4.15318C13.7519 4.15318 17.5073 4.01389 19.0823 4.63532C20.1323 5.05318 20.9412 5.86211 21.3644 6.91747C21.9912 8.49782 21.8465 12.2478 21.8465 13.9943C21.8465 15.7407 21.9912 19.496 21.3644 21.071Z" fill="#ECDCBF"/>
</g>
<defs>
<clipPath id="clip0_799_3821">
<rect width="24" height="27.4286" fill="white" transform="translate(0 0.285156)"/>
</clipPath>
</defs>
</svg>
