<svg width="124" height="149" viewBox="0 0 124 149" fill="none" xmlns="http://www.w3.org/2000/svg">
<g id="Logo" clip-path="url(#clip0_597_7197)">
<path id="Vector" d="M123.772 41.2648C123.342 39.0008 121.946 37.167 119.797 35.7656C117.648 34.3643 115.393 33.9318 113.03 34.4706C110.73 34.9699 108.566 35.9631 106.685 37.3821C104.75 38.7834 103.354 40.0784 102.495 41.3734C99.381 46.01 96.3729 50.8547 93.5791 55.7109C90.7876 60.6712 87.9937 65.6316 85.3081 70.7006C83.6959 71.3481 81.1208 72.4257 77.5761 73.7207C75.1048 74.5833 72.0967 75.6609 68.6603 76.8495L68.4507 73.834L67.7021 61.3188L63.9432 0.5L55.8818 16.9997L58.7839 63.5873L59.749 78.2555L60.8246 96.2653V96.3716C61.0709 96.2866 61.3216 96.2148 61.5755 96.1566C68.1738 94.1858 74.6328 91.7723 80.9089 88.9323C87.1277 86.2359 91.3288 83.9697 97.0317 80.7345C107.988 74.4792 115.72 66.397 120.018 56.4718C120.826 54.7992 121.508 53.0685 122.059 51.2941C122.738 49.469 123.277 47.5942 123.671 45.6862C124.079 44.245 124.113 42.7233 123.772 41.2648ZM110.667 57.4523C107.686 59.7761 104.484 61.7993 101.108 63.4925C97.5637 65.2176 93.9108 67.0514 90.1519 68.7766C91.6559 66.1889 93.2659 63.7076 94.8781 61.1199C96.5116 58.6137 98.4609 56.33 100.678 54.3258C101.434 53.5681 102.414 53.0758 103.472 52.9221C105.032 52.5069 106.682 52.5827 108.198 53.1394C109.81 53.6783 110.667 54.6495 110.989 56.0509C111.083 56.2879 111.102 56.5481 111.045 56.7965C110.987 57.0449 110.855 57.2696 110.667 57.4407V57.4523Z" fill="#ECDCBF"/>
<path id="Vector_2" d="M94.2327 0.5L85.8535 16.817L88.219 61.1083L96.5959 47.527L94.2327 0.5Z" fill="#ECDCBF"/>
<path id="Vector_3" d="M48.1537 87.8018L48.0455 87.9104C46.113 89.6356 44.2866 91.252 42.2459 92.9794L36.4463 98.1548L43.3192 107.43C45.3599 105.705 47.2946 103.978 49.227 102.253L55.0266 97.0772L48.1537 87.8018Z" fill="#ECDCBF"/>
<path id="Vector_4" d="M99.358 109.999C99.1892 110.626 98.9736 111.239 98.7131 111.833C98.1764 113.128 97.4232 114.529 95.4885 116.689C94.4579 117.914 93.3451 119.067 92.158 120.139C88.2932 124.02 85.0709 126.716 83.8824 127.687C77.9746 132.217 70.9842 137.4 62.5083 141.493C57.9147 143.65 53.1349 145.382 48.2281 146.668C43.7184 147.855 38.6697 148.502 33.0843 148.502C26.3602 148.545 19.7126 147.07 13.6334 144.185C9.31457 142.023 5.78217 138.552 3.53591 134.264C1.17278 129.951 -0.00878906 124.45 -0.00878906 117.873C-0.00878906 112.048 1.06683 105.793 3.10751 99.3222C6.2215 88.9691 10.8418 80.5586 17.1781 73.7644L26.3081 64.8127V64.7064L29.5327 61.5776L30.1776 60.9301C29.8423 59.5023 29.1798 58.1729 28.2429 57.0474C27.3837 55.4286 26.8471 53.3821 26.8471 50.9008C26.8312 47.5269 27.3761 44.1739 28.4594 40.9801C29.6409 37.8536 31.0367 35.2636 32.6467 33.3234C34.3672 31.1659 36.2996 30.0859 38.3403 30.0859H38.4486C40.1094 30.174 41.761 30.3897 43.389 30.7311C44.893 31.1636 46.3971 31.4873 47.9955 31.9197L43.8082 44.7518C42.1561 44.2069 40.4694 43.7743 38.7595 43.4568C37.0413 43.1354 35.2148 42.918 33.4943 42.7029C33.7879 45.012 34.5956 47.2251 35.8574 49.1779C37.0527 50.8996 38.4271 52.4887 39.9572 53.9186C43.0735 53.8099 45.7591 53.1647 47.9057 52.0848C49.0896 51.5459 50.1629 51.0071 51.3444 50.466C52.4178 50.0336 53.5993 49.4947 54.7809 49.0623C54.7951 49.063 54.8092 49.0607 54.8225 49.0556C54.8358 49.0505 54.8479 49.0427 54.858 49.0327C54.8682 49.0227 54.8762 49.0108 54.8815 48.9976C54.8869 48.9844 54.8895 48.9702 54.8891 48.9559C54.9329 48.9498 54.9775 48.9539 55.0194 48.968C55.0614 48.9821 55.0994 49.0058 55.1307 49.0372C55.162 49.0685 55.1855 49.1068 55.1996 49.1489C55.2136 49.1909 55.2177 49.2357 55.2116 49.2797C55.1921 49.6941 55.0821 50.0991 54.8891 50.466C54.4577 51.7595 53.9202 53.1616 53.2769 54.6724C52.526 56.1825 51.8811 57.4752 51.3444 58.6615C51.022 59.309 50.6995 59.8478 50.5913 60.2803C50.448 60.5151 50.3401 60.7699 50.2711 61.0364C48.1222 62.1141 42.9652 64.4867 41.141 65.3492C43.3603 65.4757 45.5857 65.4401 47.7997 65.2429C51.7728 64.8104 54.7809 64.4867 56.8216 64.0566C60.4859 63.3659 64.1079 62.4657 67.6699 61.3602C69.5799 60.8632 71.4476 60.2144 73.2552 59.42C73.3635 56.7236 72.5044 52.7322 70.7862 47.5569L80.6579 32.891C80.7661 32.6759 81.0886 32.891 81.3028 33.7536C81.5162 34.509 81.8387 35.9111 82.2702 37.96C83.2352 41.9514 83.5577 44.8628 83.3435 46.6966C82.5926 53.1716 80.5519 59.0962 77.3297 64.2716C74.8583 68.263 71.9585 71.3895 68.4138 73.8685C68.1531 73.995 67.9015 74.1395 67.6607 74.3009C64.3325 75.9197 61.5386 77.4274 57.987 78.3987C57.4504 78.6137 55.0872 79.2613 51.9732 79.6937C50.8706 79.8693 49.7584 79.9774 48.6427 80.0174C47.1796 80.1645 45.7074 80.2001 44.2389 80.1238C43.0176 80.1449 41.7965 80.073 40.586 79.9088C38.6535 79.585 37.472 79.1549 37.0436 78.9375C36.1822 78.6138 35.4313 78.3987 34.6781 77.8599C33.6048 77.1037 33.0659 76.3498 32.9599 76.1348C32.6375 75.811 31.9949 74.8397 31.6724 73.4384C31.5149 72.8041 31.4421 72.1517 31.4559 71.4982C24.583 79.2613 21.575 82.7138 21.0383 83.359L20.7158 83.6828C20.3934 84.116 19.856 84.7635 19.1036 85.6252C16.8579 88.3239 15.2456 90.3728 13.4284 92.8518C11.8161 95.0094 10.5286 97.2733 9.34701 99.4309C8.23511 101.579 7.30069 103.815 6.55317 106.116C6.01651 107.735 5.69406 109.245 5.69406 110.646C5.65096 112.972 6.45251 115.233 7.94894 117.008C12.2468 121.753 17.6226 125.312 23.9542 127.579C30.2927 129.951 37.8106 131.138 46.2957 131.138C50.6995 131.138 56.9298 131.244 64.7701 129.412C71.5942 127.793 78.1446 125.177 84.2118 121.647C90.7645 117.873 95.705 113.558 99.358 109.999Z" fill="#ECDCBF"/>
</g>
<defs>
<clipPath id="clip0_597_7197">
<rect width="124" height="148" fill="white" transform="translate(0 0.5)"/>
</clipPath>
</defs>
</svg>
