<svg width="24" height="25" viewBox="0 0 24 25" fill="none" xmlns="http://www.w3.org/2000/svg">
<g id="minus - stroke" clip-path="url(#clip0_1965_24662)">
<path id="Exclude" fill-rule="evenodd" clip-rule="evenodd" d="M24 12.5C24 19.1713 18.5838 24.5 12 24.5C5.41617 24.5 0 19.1713 0 12.5C0 5.82865 5.41617 0.5 12 0.5C18.5838 0.5 24 5.82865 24 12.5ZM22.0465 12.5C22.0465 18.0271 17.5485 22.5077 12 22.5077C6.45146 22.5077 1.95349 18.0271 1.95349 12.5C1.95349 6.97289 6.45146 2.49228 12 2.49228C17.5485 2.49228 22.0465 6.97289 22.0465 12.5ZM7.47907 12.5C7.47907 11.9473 7.92887 11.4992 8.48372 11.4992H15.5163C16.0711 11.4992 16.5209 11.9473 16.5209 12.5C16.5209 13.0527 16.0711 13.5008 15.5163 13.5008H8.48372C7.92887 13.5008 7.47907 13.0527 7.47907 12.5Z" fill="black"/>
</g>
<defs>
<clipPath id="clip0_1965_24662">
<rect width="24" height="24" fill="white" transform="translate(0 0.5)"/>
</clipPath>
</defs>
</svg>
