<svg width="25" height="24" viewBox="0 0 25 24" fill="none" xmlns="http://www.w3.org/2000/svg">
<g id="plus-solid" clip-path="url(#clip0_1098_7226)">
<path id="Subtract" fill-rule="evenodd" clip-rule="evenodd" d="M12.5 24C19.1274 24 24.5 18.6274 24.5 12C24.5 5.37258 19.1274 0 12.5 0C5.87258 0 0.5 5.37258 0.5 12C0.5 18.6274 5.87258 24 12.5 24ZM13.5694 7.76914C13.5694 7.17797 13.0914 6.69991 12.5002 6.69991C11.909 6.69991 11.431 7.17797 11.431 7.76914V10.9307H8.26943C7.67826 10.9307 7.2002 11.4087 7.2002 11.9999C7.2002 12.5911 7.67826 13.0691 8.26943 13.0691H11.431V16.2307C11.431 16.8218 11.909 17.2999 12.5002 17.2999C13.0914 17.2999 13.5694 16.8218 13.5694 16.2307V13.0691H16.731C17.3221 13.0691 17.8002 12.5911 17.8002 11.9999C17.8002 11.4087 17.3221 10.9307 16.731 10.9307H13.5694V7.76914Z" fill="#A31D1D"/>
</g>
<defs>
<clipPath id="clip0_1098_7226">
<rect width="24" height="24" fill="white" transform="translate(0.5)"/>
</clipPath>
</defs>
</svg>
