<svg width="18" height="18" viewBox="0 0 18 18" fill="none" xmlns="http://www.w3.org/2000/svg">
<g id="minus - stroke" clip-path="url(#clip0_2054_22651)">
<path id="Exclude" fill-rule="evenodd" clip-rule="evenodd" d="M18 9C18 14.0035 13.9379 18 9 18C4.06213 18 0 14.0035 0 9C0 3.99649 4.06213 0 9 0C13.9379 0 18 3.99649 18 9ZM16.5349 9C16.5349 13.1453 13.1614 16.5058 9 16.5058C4.8386 16.5058 1.46512 13.1453 1.46512 9C1.46512 4.85467 4.8386 1.49421 9 1.49421C13.1614 1.49421 16.5349 4.85467 16.5349 9ZM5.6093 9C5.6093 8.58547 5.94665 8.24942 6.36279 8.24942H11.6372C12.0533 8.24942 12.3907 8.58547 12.3907 9C12.3907 9.41453 12.0533 9.75058 11.6372 9.75058H6.36279C5.94665 9.75058 5.6093 9.41453 5.6093 9Z" fill="#A31D1D"/>
</g>
<defs>
<clipPath id="clip0_2054_22651">
<rect width="18" height="18" fill="white"/>
</clipPath>
</defs>
</svg>
