<svg width="24" height="25" viewBox="0 0 24 25" fill="none" xmlns="http://www.w3.org/2000/svg">
<g clip-path="url(#clip0_2018_22535)">
<path fill-rule="evenodd" clip-rule="evenodd" d="M21 12.5C21 17.5035 16.9379 21.5 12 21.5C7.06213 21.5 3 17.5035 3 12.5C3 7.49649 7.06213 3.5 12 3.5C16.9379 3.5 21 7.49649 21 12.5ZM19.5349 12.5C19.5349 16.6453 16.1614 20.0058 12 20.0058C7.8386 20.0058 4.46512 16.6453 4.46512 12.5C4.46512 8.35467 7.8386 4.99421 12 4.99421C16.1614 4.99421 19.5349 8.35467 19.5349 12.5ZM8.6093 12.5C8.6093 12.0855 8.94665 11.7494 9.36279 11.7494H14.6372C15.0533 11.7494 15.3907 12.0855 15.3907 12.5C15.3907 12.9145 15.0533 13.2506 14.6372 13.2506H9.36279C8.94665 13.2506 8.6093 12.9145 8.6093 12.5Z" fill="black"/>
</g>
<defs>
<clipPath id="clip0_2018_22535">
<rect width="18" height="18" fill="white" transform="translate(3 3.5)"/>
</clipPath>
</defs>
</svg>
