<svg width="33" height="32" viewBox="0 0 33 32" fill="none" xmlns="http://www.w3.org/2000/svg">
<g id="store">
<path id="Vector" d="M27.95 9.65825L25.4225 5.87909C25.1976 5.54159 24.7962 5.33325 24.3683 5.33325H8.62996C8.20209 5.33325 7.80069 5.54159 7.57573 5.87909L5.04383 9.65825C3.73818 11.6083 4.89386 14.3208 7.33313 14.6333C7.50957 14.6541 7.69042 14.6666 7.86686 14.6666C9.01812 14.6666 10.0415 14.1916 10.7428 13.4583C11.4442 14.1916 12.4675 14.6666 13.6188 14.6666C14.77 14.6666 15.7934 14.1916 16.4947 13.4583C17.1961 14.1916 18.2194 14.6666 19.3707 14.6666C20.5264 14.6666 21.5453 14.1916 22.2466 13.4583C22.9524 14.1916 23.9713 14.6666 25.1226 14.6666C25.3034 14.6666 25.4799 14.6541 25.6563 14.6333C28.1044 14.3249 29.2645 11.6124 27.9544 9.65825H27.95ZM25.8372 15.9541C25.8372 15.9541 25.8372 15.9541 25.8328 15.9541C25.599 15.9833 25.3608 15.9999 25.1182 15.9999C24.5712 15.9999 24.0463 15.9208 23.5567 15.7791V21.3333H9.44157V15.7749C8.94755 15.9208 8.41823 15.9999 7.87127 15.9999C7.62866 15.9999 7.38606 15.9833 7.15228 15.9541H7.14787C6.96702 15.9291 6.79058 15.8999 6.61855 15.8583V21.3333V23.9999C6.61855 25.4708 7.8845 26.6666 9.44157 26.6666H23.5567C25.1138 26.6666 26.3797 25.4708 26.3797 23.9999V21.3333V15.8583C26.2033 15.8999 26.0268 15.9333 25.8372 15.9541Z" fill="#A31D1D"/>
</g>
</svg>
