<svg width="33" height="32" viewBox="0 0 33 32" fill="none" xmlns="http://www.w3.org/2000/svg">
<g id="store">
<path id="Exclude" fill-rule="evenodd" clip-rule="evenodd" d="M26.3444 10.8551L23.989 7.33325H9.00886L6.70571 10.771C6.21353 11.5067 6.64633 12.5229 7.57851 12.6483C7.68739 12.6608 7.78499 12.6666 7.86686 12.6666C8.46157 12.6666 8.96597 12.4225 9.29743 12.0759L10.7428 10.5646L12.1882 12.0759C12.5197 12.4225 13.0241 12.6666 13.6188 12.6666C14.2135 12.6666 14.7179 12.4225 15.0493 12.0759L16.4947 10.5646L17.9401 12.0759C18.2716 12.4225 18.776 12.6666 19.3707 12.6666C19.9686 12.6666 20.469 12.4234 20.8013 12.0759L22.2421 10.5693L23.6877 12.0714C24.0279 12.4249 24.5314 12.6666 25.1226 12.6666C25.2084 12.6666 25.3026 12.6609 25.4132 12.648C26.3212 12.5292 26.7541 11.5825 26.3444 10.8551ZM27.9544 9.65825C28.7823 10.8931 28.6238 12.4307 27.7772 13.4732C27.3624 13.9841 26.7823 14.3761 26.072 14.5552C25.9952 14.5746 25.9169 14.5915 25.8372 14.6057C25.8357 14.606 25.8342 14.6063 25.8328 14.6065C25.7862 14.6148 25.7391 14.6222 25.6916 14.6286C25.6837 14.6297 25.6757 14.6308 25.6678 14.6318C25.664 14.6323 25.6602 14.6328 25.6563 14.6333C25.4799 14.6541 25.3034 14.6666 25.1226 14.6666C25.1211 14.6666 25.1197 14.6666 25.1182 14.6666C24.7019 14.6661 24.303 14.6036 23.9299 14.4892C23.3805 14.3207 22.8873 14.0398 22.4776 13.6791C22.3973 13.6085 22.3203 13.5348 22.2466 13.4583C22.1743 13.5339 22.0985 13.6069 22.0195 13.6768C21.8754 13.8045 21.7208 13.9221 21.5567 14.0284C20.9395 14.4282 20.1894 14.6666 19.3707 14.6666C18.3464 14.6666 17.4234 14.2906 16.7383 13.6912C16.6533 13.6169 16.5721 13.5391 16.4947 13.4583C16.4174 13.5391 16.3361 13.6169 16.2512 13.6912C15.5661 14.2906 14.6431 14.6666 13.6188 14.6666C12.8067 14.6666 12.0582 14.4302 11.4416 14.0336C11.2804 13.9299 11.1283 13.8154 10.9864 13.6912C10.9014 13.6169 10.8202 13.5391 10.7428 13.4583C10.6655 13.5391 10.5842 13.6169 10.4993 13.6912C10.094 14.0458 9.60545 14.3222 9.06193 14.4888C8.68799 14.6035 8.28803 14.6661 7.87127 14.6666C7.8698 14.6666 7.86833 14.6666 7.86686 14.6666C7.69042 14.6666 7.50957 14.6541 7.33313 14.6333C7.33225 14.6331 7.33138 14.633 7.3305 14.6329C7.3261 14.6323 7.32171 14.6318 7.31732 14.6312C7.26163 14.6238 7.20661 14.6152 7.15228 14.6053C7.15081 14.605 7.14934 14.6048 7.14787 14.6045C7.07515 14.5912 7.00366 14.5757 6.93344 14.5582C6.2142 14.3784 5.62801 13.9795 5.21132 13.4596C4.37548 12.4166 4.22162 10.8862 5.04383 9.65825L7.57573 5.87909C7.80069 5.54159 8.20209 5.33325 8.62996 5.33325H24.3683C24.7962 5.33325 25.1976 5.54159 25.4225 5.87909L27.95 9.65825H27.9544ZM6.61855 15.8583C6.79058 15.8999 6.96702 15.9291 7.14787 15.9541H7.15228C7.15609 15.9546 7.15991 15.955 7.16373 15.9555C7.16809 15.956 7.17245 15.9566 7.17681 15.9571C7.26404 15.9676 7.35244 15.9764 7.44157 15.9832C7.58213 15.9939 7.72448 15.9998 7.86686 15.9999C7.86833 15.9999 7.8698 15.9999 7.87127 15.9999C8.12474 15.9999 8.37442 15.9829 8.61855 15.9502C8.90123 15.9122 9.17649 15.8532 9.44158 15.7749V21.3333H23.5567V15.7791C23.8214 15.8557 24.0965 15.914 24.3797 15.9514C24.6204 15.9832 24.867 15.9999 25.1182 15.9999C25.1197 15.9999 25.1211 15.9999 25.1226 15.9999C25.2689 15.9998 25.4136 15.9936 25.5567 15.9823C25.6426 15.9755 25.7279 15.9669 25.8126 15.9566C25.816 15.9562 25.8194 15.9557 25.8228 15.9553C25.8261 15.9549 25.8295 15.9545 25.8328 15.9541H25.8372C26.0268 15.9333 26.2033 15.8999 26.3797 15.8583V23.9999C26.3797 25.4708 25.1138 26.6666 23.5567 26.6666H9.44158C7.8845 26.6666 6.61855 25.4708 6.61855 23.9999V15.8583ZM8.61855 23.3333V23.9999C8.61855 24.2603 8.88017 24.6666 9.44158 24.6666H23.5567C24.1181 24.6666 24.3797 24.2603 24.3797 23.9999V23.3333H8.61855Z" fill="#A31D1D"/>
</g>
</svg>
